<?xml version="1.0" standalone="no"?>
<!DOCTYPE svg PUBLIC "-//W3C//DTD SVG 1.1//EN" "http://www.w3.org/Graphics/SVG/1.1/DTD/svg11.dtd" >
<svg xmlns="http://www.w3.org/2000/svg">
<metadata>
Created by FontForge 20120731 at Tue Aug 25 10:13:07 2015
 By Ads
</metadata>
<defs>
<font id="iconfont" horiz-adv-x="1024" >
  <font-face 
    font-family="iconfont"
    font-weight="500"
    font-stretch="normal"
    units-per-em="1024"
    panose-1="2 0 6 3 0 0 0 0 0 0"
    ascent="812"
    descent="-212"
    x-height="792"
    bbox="0 -213 1282 812"
    underline-thickness="50"
    underline-position="-100"
    unicode-range="U+0078-E655"
  />
<missing-glyph horiz-adv-x="374" 
d="M34 0v682h272v-682h-272zM68 34h204v614h-204v-614z" />
    <glyph glyph-name=".notdef" horiz-adv-x="374" 
d="M34 0v682h272v-682h-272zM68 34h204v614h-204v-614z" />
    <glyph glyph-name=".null" horiz-adv-x="0" 
 />
    <glyph glyph-name="nonmarkingreturn" horiz-adv-x="341" 
 />
    <glyph glyph-name="x" unicode="x" horiz-adv-x="1001" 
d="M281 543q-27 -1 -53 -1h-83q-18 0 -36.5 -6t-32.5 -18.5t-23 -32t-9 -45.5v-76h912v41q0 16 -0.5 30t-0.5 18q0 13 -5 29t-17 29.5t-31.5 22.5t-49.5 9h-133v-97h-438v97zM955 310v-52q0 -23 0.5 -52t0.5 -58t-10.5 -47.5t-26 -30t-33 -16t-31.5 -4.5q-14 -1 -29.5 -0.5
t-29.5 0.5h-32l-45 128h-439l-44 -128h-29h-34q-20 0 -45 1q-25 0 -41 9.5t-25.5 23t-13.5 29.5t-4 30v167h911zM163 247q-12 0 -21 -8.5t-9 -21.5t9 -21.5t21 -8.5q13 0 22 8.5t9 21.5t-9 21.5t-22 8.5zM316 123q-8 -26 -14 -48q-5 -19 -10.5 -37t-7.5 -25t-3 -15t1 -14.5
t9.5 -10.5t21.5 -4h37h67h81h80h64h36q23 0 34 12t2 38q-5 13 -9.5 30.5t-9.5 34.5q-5 19 -11 39h-368zM336 498v228q0 11 2.5 23t10 21.5t20.5 15.5t34 6h188q31 0 51.5 -14.5t20.5 -52.5v-227h-327z" />
    <glyph glyph-name="uniE600" unicode="&#xe600;" 
d="M915 343q-2 10 -6.5 28t-23 62.5t-43.5 82.5q-50 76 -120 119q-52 33 -114 46l56 18q5 2 8 5.5t4 8.5t0 10q-3 7 -10 10.5t-14 1.5l-138 -46h-1h-1v-1h-1h-1v-1h-1v0h-1v-1v0h-1q0 -1 -1 -1v-1h-1v-1h-1v-1v0h-1v-1v0v-1v0q-1 0 -1 -1v0v0v-1v0h-1v-1v-1v0v-1v0l-1 -1v0
v-1v0v-1v0v0v-1v0v-1v0v-1v0v-1h1v-1v0v-1v-1v0l1 -1v-1v-1h1v-1v0l1 -1v0v-1h1v0v-1h1l95 -98q5 -6 13 -6q4 0 7 1.5t6 4.5q6 5 6 13t-5 13l-62 64q25 -3 48.5 -9.5t45.5 -15.5t42 -22q63 -39 109 -108q23 -35 40 -76.5t21.5 -58.5t5.5 -24t6.5 -11t11.5 -4h4q7 1 11.5 7.5
t3.5 14.5v0zM100 231q2 -10 6.5 -27.5t23 -62.5t43.5 -82q50 -76 120 -120q52 -32 114 -46l-56 -18q-7 -2 -10.5 -9t-1 -14.5t9.5 -11t14 -1.5l138 46h1v0l1 1h1v0l1 1v0h1v0v1h1h1v1v0v0q1 0 1 1h1v1v0l1 1v0v0v1h1v1v0l1 1v0v1v0v1h1v1v0v1v0v1v0v0v1v0v1h1v0v0v1v0v1v0
l-1 1v0v0v1v0v1v0v1v0v1h-1v1v1v0l-1 1v0v1v0v0h-1v1v1h-1v0v1h-1l-95 98q-5 6 -13 6t-13.5 -5.5t-5.5 -13t5 -13.5l62 -63q-76 9 -136 46q-63 39 -109 108q-8 13 -16 26.5t-13.5 25.5t-11 24.5t-9 22.5t-6.5 19.5t-5 16.5t-3.5 13t-1.5 9l-1 2q-1 7 -6.5 11.5t-12.5 4.5h-1
q-1 -1 -2 -1q-3 0 -5.5 -1.5t-4.5 -3.5t-3.5 -5t-2 -6t0.5 -6v0zM544 36h-5l-234 73q-4 1 -6.5 3t-4 5.5t-1.5 6.5v40h33v-28l201 -62v233l-201 48v-90h-33v111q0 8 6 13q3 2 6.5 3t7.5 0l234 -56q4 -1 7 -3t4.5 -5.5t1.5 -7.5v-268q0 -3 -1 -5.5t-2.5 -4.5t-3.5 -3
q-4 -3 -9 -3v0zM544 320l172 79v-235l-172 -112v268zM544 36q-9 0 -14 7q-4 6 -2.5 12.5t7.5 10.5l165 107v201l-150 -69q-14 -5 -21 8q-3 7 -0.5 13t8.5 9l172 79q8 4 16 -1q2 -1 3.5 -2.5t2 -3.5t1.5 -4t1 -4v-235q0 -9 -8 -14l-172 -112q-3 -1 -5 -1.5t-4 -0.5v0z
M309 359q-2 0 -4 1l-4 2q-2 1 -4 3t-3 4q-1 4 -1 8.5t2.5 8t7.5 5.5l170 77q3 1 5.5 1.5t5.5 -0.5l236 -54q6 -2 10 -7.5t2.5 -12t-7.5 -10t-13 -2.5l-230 53l-166 -75q-3 -2 -7 -2v0zM309 359z" />
    <glyph glyph-name="uniE601" unicode="&#xe601;" 
d="M981 -92l-72 2l1 728h41l2 75h-287l3 3q2 13 1.5 23.5t-2.5 19t-5.5 14.5t-7.5 10.5t-8 8t-8.5 5.5t-7.5 3t-5 2h-2l-330 -1q-25 -3 -36 -25t-10 -42l1 -21h-166l-1 -90l41 -2l2 -712h-74l1 -120l930 -1zM248 551l119 -1v-104h-119v105zM252 337l120 -1v-105l-120 1v105z
M378 31h-119v105l119 -1v-104zM464 551l119 -1v-104h-119v105zM468 337l119 -1v-105l-119 1v105zM594 -30h-119v166l119 -2v-164zM685 551l119 -1v-104h-119v105zM689 337l119 -1v-105l-119 1v105zM695 136l120 -1v-104h-120v105z" />
    <glyph glyph-name="uniE602" unicode="&#xe602;" 
d="M956 437v1v1l-110 264v6h-650v-2l-130 -268h-1v-1v-1q1 -46 32 -79.5t76 -38.5v-448h54h563h9q6 0 11.5 0.5t13.5 2.5t16 6t14 10q11 9 18 24.5t7 37.5v93q0 25 -23 47t-75 22h-244l61 62q8 8 8 18.5t-7.5 18t-18.5 7.5t-19 -7l-110 -111q-8 -7 -8 -18t8 -18l116 -117
q8 -7 19 -7t18.5 7.5t7.5 18t-8 18.5l-77 77h1h1h252q13 0 22 -2t14 -5t7.5 -5.5t3.5 -5.5v-93q0 -16 -8 -23q-8 -8 -27 -6h-566v402q12 5 22 11t19 14.5t16 18t12 20.5q14 -32 44 -51.5t66 -19.5q21 0 41 7.5t35.5 20t26.5 30.5q16 -27 43 -42.5t59 -15.5q38 0 68.5 21
t44.5 55q6 -16 17.5 -30t26 -24.5t32 -16t36.5 -5.5q12 0 24 2.5t22.5 7t20 11t18 14.5t15 17.5t11 20t7 22.5t2.5 24v0zM836 372q-18 0 -33.5 9t-24.5 24.5t-9 33.5h-91q0 -14 -5.5 -26t-14.5 -21t-21 -14.5t-25.5 -5.5t-26 5.5t-21 14.5t-14 21t-5.5 26h-73
q0 -28 -19.5 -47.5t-46.5 -19.5q-18 0 -33.5 9t-24 24.5t-8.5 33.5h-88q0 -18 -8.5 -33.5t-24 -24.5t-33.5 -9q-12 0 -23 4.5t-19.5 11.5t-14.5 17.5t-8 21.5l110 228h577l93 -226q-2 -16 -11 -29t-23.5 -20.5t-30.5 -7.5z" />
    <glyph glyph-name="uniE603" unicode="&#xe603;" 
d="M772 394h-7v1h-79v-1h-345v104q0 72 50 121l2 2q51 48 120 48q72 0 122 -50q35 -34 46 -82h80q-2 13 -5.5 26t-8 25.5t-10.5 24t-13 22.5t-15.5 21t-17.5 19q-17 17 -37 30.5t-42.5 23t-47.5 14.5t-51 5q-50 0 -95 -18.5t-80 -53.5l-2 -2q-74 -72 -74 -176v-104h-7
q-10 0 -19.5 -2t-18 -5.5t-16 -9t-14.5 -11.5v-1q-28 -27 -28 -67v-350q0 -20 7.5 -37.5t20.5 -29.5q28 -29 68 -29h517q36 0 65 26l2 3q13 13 21 30.5t8 36.5v350q0 19 -7.5 36.5t-21.5 31.5q-29 28 -67 28zM788 -52q0 -2 -0.5 -4.5t-1.5 -4.5t-3 -3l-1 -1q-2 -2 -4.5 -3.5
t-5.5 -1.5h-517q-2 0 -4 0.5t-4 2t-3 2.5q-5 5 -5 12v350q0 6 5 12q2 3 5 4t6 1h517q7 0 11 -5q3 -2 4 -5t1 -7v-349zM581 225q-28 28 -68 28q-39 0 -67 -28q-27 -27 -27 -67q0 -39 27 -68q19 -18 44 -25v-48q0 -10 7 -17t17 -7t17 7t7 17v48q24 6 43 25q28 29 28 68
q0 40 -28 67zM547 124q-6 -6 -14.5 -10t-17.5 -4h-3q-17 0 -33 14q-14 14 -14 33q0 21 14 34q15 14 34 14q20 0 34 -14t14 -34q0 -6 -2 -12t-5 -11.5t-7 -9.5z" />
    <glyph glyph-name="uniE604" unicode="&#xe604;" 
d="M772 394h-7v1h-79v-1h-345v104q0 72 50 121l2 2q51 48 120 48q72 0 122 -50q35 -34 46 -82h80q-2 13 -5.5 26t-8 25.5t-10.5 24t-13 22.5t-15.5 21t-17.5 19q-17 17 -37 30.5t-42.5 23t-47.5 14.5t-51 5q-50 0 -95 -18.5t-80 -53.5l-2 -2q-74 -72 -74 -176v-104h-7
q-10 0 -19.5 -2t-18 -5.5t-16 -9t-14.5 -11.5v-1q-28 -27 -28 -67v-350q0 -20 7.5 -37.5t20.5 -29.5q28 -29 68 -29h517q36 0 65 26l2 3q13 13 21 30.5t8 36.5v350q0 19 -7.5 36.5t-21.5 31.5q-29 28 -67 28zM788 -52q0 -2 -0.5 -4.5t-1.5 -4.5t-3 -3l-1 -1q-2 -2 -4.5 -3.5
t-5.5 -1.5h-517q-2 0 -4 0.5t-4 2t-3 2.5q-5 5 -5 12v350q0 6 5 12q2 3 5 4t6 1h517q7 0 11 -5q3 -2 4 -5t1 -7v-349zM581 225q-28 28 -68 28q-39 0 -67 -28q-27 -27 -27 -67q0 -39 27 -68q19 -18 44 -25v-48q0 -10 7 -17t17 -7t17 7t7 17v48q24 6 43 25q28 29 28 68
q0 40 -28 67zM547 124q-6 -6 -14.5 -10t-17.5 -4h-3q-17 0 -33 14q-14 14 -14 33q0 21 14 34q15 14 34 14q20 0 34 -14t14 -34q0 -6 -2 -12t-5 -11.5t-7 -9.5z" />
    <glyph glyph-name="uniE605" unicode="&#xe605;" horiz-adv-x="1027" 
d="M82 364h205v-45h-40v-364h-125v368h-40v41zM411 362h205v-40h-40v-367h-125v368h-40v39zM738 362h204v-40h-40v-367h-124v368h-40v39zM43 -87h941v-40h-941v40zM2 -172h1023v-37h-1023v37zM1009 452q-10 7 -134 96t-243 175l-119 86q-1 0 -495 -357q-18 -11 -18 -25.5
t18 -22.5h991q17 8 17 22.5t-17 25.5zM512.5 497q-29.5 0 -50.5 21t-21 50.5t21 50.5t50.5 21t50.5 -21t21 -50.5t-21 -50.5t-50.5 -21z" />
    <glyph glyph-name="uniE606" unicode="&#xe606;" 
d="M1014 -122l-149 1v905h-696l1 -905l-147 -1v-87l989 -2zM306 -107l2 262l138 1l-1 -263h-139zM570 9v147h136v-146zM706 251h-136v146l136 1v-147zM570 638l136 1v-147h-136v146zM307 638l136 1v-147h-136v146zM308 397l136 1v-147h-136v146z" />
    <glyph glyph-name="uniE607" unicode="&#xe607;" 
d="M763 738q-12 3 -24 3q-29 0 -61.5 -16t-62 -42t-50.5 -48t-40 -46q-19 24 -40 46t-50.5 48t-62.5 42t-61 16q-13 0 -25 -3q-17 -5 -29 -15t-17.5 -24.5t-3.5 -32.5q6 -60 85 -119t172 -63h13h37h14q92 4 171 63t86 119q3 26 -10.5 45.5t-40.5 26.5zM482 538
q-74 7 -132 52t-62 82q-1 12 12 15q5 2 11 2q35 0 86 -43.5t93 -97.5l-1 -8zM762 672q-5 -37 -63 -82t-132 -52q-7 0 -9 1l1 9q19 24 41 47.5t46.5 45t49 35t43.5 13.5q6 0 11 -2q13 -3 12 -15zM470 463h-227q-34 0 -58 -24t-24 -58v-440q0 -34 24 -58t58 -24h227v604z
M782 463h-219v-604h219q17 0 32 6.5t26 17.5t17.5 26t6.5 32v440q0 34 -24 58t-58 24z" />
    <glyph glyph-name="uniE608" unicode="&#xe608;" 
d="M529 756q-73 0 -141.5 -19.5t-123.5 -55t-96.5 -83t-64 -106.5t-22.5 -122q0 -74 22 -135.5t55.5 -102t83.5 -78.5t94.5 -62t101 -56.5t91.5 -58.5q39 33 95.5 67.5t102 58t94 59.5t81.5 74t54.5 98t21.5 136q0 78 -36 150t-96 123.5t-143 82t-174 30.5zM318 269
q-24 0 -45.5 12t-33.5 33t-12 46q0 38 27 65t64.5 27t64.5 -27t27 -65q0 -7 -1.5 -14.5t-3.5 -14t-5.5 -13t-7.5 -12t-9 -10.5t-10.5 -9.5t-12 -7.5t-13 -5.5t-14 -3.5t-15.5 -1zM545 269q-38 0 -64.5 26.5t-26.5 64.5t26.5 65t64.5 27t65 -27t27 -65q0 -10 -2.5 -20.5
t-7 -19.5t-11 -17t-14.5 -14t-17 -10.5t-19 -7t-21 -2.5zM762.5 269q-37.5 0 -64.5 26.5t-27 64.5t27 65t64.5 27t64.5 -27t27 -65t-27 -64.5t-64.5 -26.5z" />
    <glyph glyph-name="uniE609" unicode="&#xe609;" horiz-adv-x="1449" 
d="M724 597q-76 120 -192 121q-99 2 -175 -80q-86 -91 -84 -224q3 -188 187 -356q106 -96 264 -176q323 163 418 382q67 154 5 290q-44 100 -135 143q-102 48 -196 -7q-53 -32 -92 -93zM969 300l-167 210q31 35 62 53t53 18.5t40 -4t27 -12.5l9 -7q32 -34 41 -73t-0.5 -70.5
t-23.5 -58.5t-28 -41z" />
    <glyph glyph-name="uniE60A" unicode="&#xe60a;" 
d="M483 409l-287 -241h364l294 241h-371zM520 251q-15 0 -25.5 11t-10.5 26q0 10 4.5 19t13 13.5t18.5 4.5t19 -4.5t13.5 -13.5t4.5 -19q0 -7 -2.5 -14t-7.5 -12t-12 -8t-15 -3zM512 748q-122 0 -225 -60t-163 -163t-60 -225t60 -225t163 -163t225 -60t225 60t163 163
t60 225t-60 225t-163 163t-225 60zM513 -68q-99 0 -183 49t-133 133t-49 183q0 74 29 142t77.5 116.5t116.5 77.5t142 29t141.5 -29t116.5 -77.5t78 -116.5t29 -142q0 -99 -49 -183t-133 -133t-183 -49z" />
    <glyph glyph-name="uniE60B" unicode="&#xe60b;" 
d="M644 -105q-25 0 -41 18q-9 9 -22 20t-33 22t-36 11q-23 0 -49.5 -18t-41.5 -34q-16 -18 -41 -18q-6 0 -11 1.5t-10 3.5h-1l-107 60l-1 1q-14 10 -19 27.5t2 33.5q10 23 10 43q0 47 -33 80t-80 33h-4q-5 0 -9 1.5t-8 4t-7 6t-5.5 8t-4.5 10t-3 11.5q-10 48 -10 85
q0 10 1 22.5t2 22.5l4 20q1 10 1.5 14t1.5 6q1 9 4.5 17t8.5 13t11.5 8t12.5 2h4q47 0 80 33.5t33 79.5q0 21 -10 44q-3 8 -3.5 16.5t1.5 17t7 15.5t12 12l2 1l112 62h1q3 2 6.5 3t6.5 1h8q25 0 41 -16q15 -17 41 -34t48 -17t47.5 17t41.5 33q5 5 11.5 8.5t14 5.5t14.5 2h6
q3 0 5.5 -0.5t5 -1.5t4.5 -2l2 -1l108 -60l1 -1q15 -10 20 -27.5t-2 -33.5q-10 -23 -10 -44q0 -15 4 -29.5t11 -27t17.5 -23t23 -17.5t27 -11.5t30.5 -4.5h3q14 1 24.5 -10t13.5 -30q9 -48 9 -85t-9 -85q-3 -19 -13.5 -30t-24.5 -11h-3q-31 0 -57 -15t-41 -41t-15 -57
q0 -20 10 -43q7 -16 2 -33.5t-20 -27.5l-1 -1l-110 -61l-1 -1q-5 -2 -10 -3t-11 -1zM641 -53l3 -1l103 57q-13 33 -13 63q0 66 45 113.5t110 50.5q0 2 0.5 3.5t0.5 4.5l2 6q0 3 0.5 7t1.5 9v8l2 10v8q1 5 1 10v9q0 30 -8 75q-43 2 -78.5 24t-56 59t-20.5 80q0 31 13 64
l-101 56h-1q-2 0 -3 -1q-3 -2 -6.5 -5.5t-12.5 -11.5t-19 -15q-23 -16 -45.5 -24.5t-42.5 -8.5q-41 0 -89 34q-22 16 -37 32l-4 1h-1l-105 -57q3 -6 5.5 -13t5.5 -22t3 -29q0 -43 -20.5 -80t-56.5 -59t-78 -24q-2 -8 -3.5 -17t-3 -27t-1.5 -31q0 -30 8 -75q65 -3 110 -50.5
t45 -113.5q0 -13 -3 -28t-5.5 -22t-5.5 -13l100 -55h2h1l7 6q3 4 12.5 12.5t18.5 15.5q49 35 91 35q14 0 28.5 -4t30 -12t31.5 -20q23 -16 39 -34zM512 155q-41 0 -75.5 20t-54.5 55t-20 75.5t20 75.5t54.5 55t75.5 20q62 0 106 -44t44 -106.5t-44 -106.5t-106 -44zM512 405
q-41 0 -70 -29t-29 -70.5t29 -70.5t70 -29q27 0 50 13.5t36 36.5t13 50q0 41 -29 70t-70 29z" />
    <glyph glyph-name="uniE60C" unicode="&#xe60c;" 
d="M929 300q0 7 -1 10q-1 5 -2 9l-1 1v1l-1 4q-29 62 -73.5 114.5t-98 89t-115.5 57t-125 20.5q-127 0 -240.5 -77.5t-170.5 -202.5q-2 -3 -2 -6h-1v-1q-1 -2 -1 -7l-2 -9v-3v-3l1 -7q0 -2 1 -6q1 -2 2 -5l1 -3q58 -127 171.5 -204.5t240.5 -77.5t240.5 77.5t170.5 202.5
q2 2 2 6l1 1l2 7h-1q2 7 2 12zM873 298v-1h-1v-1q-51 -110 -150 -178t-210 -68q-110 0 -209 68t-151 178v2h-1v1v1v1v2h1v1q34 73 90.5 129t126.5 86.5t143 30.5q111 0 210 -68t150 -178v-1q1 0 1 -1v-2v-2zM512 439q-38 0 -70 -18.5t-50.5 -50.5t-18.5 -70q0 -57 41 -98
t98 -41t98 41t41 98q0 38 -18.5 70t-50.5 50.5t-70 18.5zM512 217q-17 0 -32.5 6.5t-26.5 17.5t-17.5 26.5t-6.5 32.5q0 14 4 26.5t12 22.5t18 18t22.5 12t26.5 4q35 0 59 -24.5t24 -58.5t-24 -58.5t-59 -24.5z" />
    <glyph glyph-name="uniE60D" unicode="&#xe60d;" horiz-adv-x="1304" 
d="M1118 294q-9 0 -17 -4.5t-12.5 -12.5t-4.5 -17v-321q0 -20 -10 -37t-27 -27t-38 -10h-716q-31 0 -53 21.5t-22 52.5v674q0 31 22 53t53 22h234q14 0 23.5 10t9.5 24t-9.5 24t-23.5 10h-234q-59 0 -100.5 -42t-41.5 -101v-674q0 -29 11 -55.5t30 -45.5t45.5 -30t55.5 -11
h716q59 0 101 41.5t42 100.5v321q0 5 -1.5 9.5t-3.5 8t-5 6.5t-7 5.5t-8 3.5t-9 1zM406 95q-3 -14 5 -25.5t22 -13.5q3 -1 6 -1q5 0 9.5 1.5t8.5 4t7 5.5t5.5 7.5t2.5 9.5q3 15 10.5 44t38.5 104t72 138q83 124 197 195q108 68 244 84l-111 -114q-10 -11 -9.5 -25t10.5 -23
q5 -5 11 -7.5t13 -2.5q2 0 5 0.5t5.5 1t4.5 2t4.5 3t4.5 3.5l171 177q1 0 1 1v0h1v1l1 1v0l1 1v1v0l1 1v0v1l1 1v0v1l1 1v1l1 1v1v1v1h1v1v0v1v1v1v0v1l1 1v0v1v0v1v0v2v1l-1 1v0v0v1v1v1v0v0v1v0v1h-1v1v1v1l-1 1v0v1v0v0l-1 1q0 1 -1 2q0 1 -1 1v1v0v1h-1v1q-1 0 -1 1v0
l-1 1v0l-1 1q-1 1 -1 2h-1l-1 1l-1 1h-1v1h-1l-1 1v0h-1h-1v1h-1l-1 1h-1h-1q0 1 -1 1l-249 82q-14 5 -26.5 -1.5t-16.5 -19.5q-3 -9 -1.5 -17.5t7.5 -15.5t15 -10l100 -33q-110 -24 -204 -82q-127 -79 -217 -216q-21 -31 -39.5 -65t-31 -62t-23.5 -57.5t-17 -49.5
t-11.5 -39.5t-7 -26.5t-1.5 -11zM406 95z" />
    <glyph glyph-name="uniE60E" unicode="&#xe60e;" 
d="M931 684h-42q-10 0 -19.5 -3t-17 -9t-13.5 -13.5t-9 -17t-3 -19.5v-441q0 -34 -17 -63t-46 -45.5t-63 -16.5h-503q-53 0 -89.5 36.5t-36.5 88.5v315q0 52 36.5 89t89.5 37h440q9 0 15 -6.5t6 -14.5v-21q0 -9 -6 -15t-15 -6h-440q-13 0 -24.5 -5t-20 -13.5t-13.5 -20
t-5 -24.5v-315q0 -13 5 -24.5t13.5 -20t20 -13.5t24.5 -5h503q10 0 19.5 3.5t17.5 9t13.5 13.5t9 17.5t3.5 19.5v189v252q0 52 36.5 88.5t88.5 36.5h42q9 0 15 -6t6 -15v-21q0 -5 -2.5 -10t-7.5 -8t-11 -3zM638 223h-378q-8 0 -14 6.5t-6 14.5v21q0 9 6 15t14 6h378
q9 0 15 -6t6 -15v-21q0 -8 -6 -14.5t-15 -6.5zM638 391h-378q-8 0 -14 6t-6 15v21q0 9 6 15t14 6h378q9 0 15 -6t6 -15v-21q0 -9 -6 -15t-15 -6zM177 -7q26 0 44.5 -18.5t18.5 -44.5t-18.5 -44.5t-44.5 -18.5t-44.5 18.5t-18.5 44.5t18.5 44.5t44.5 18.5zM774 -1
q31 0 52.5 -21.5t21.5 -52t-21.5 -52t-52 -21.5t-52 21.5t-21.5 51.5q0 44 38 65q17 9 35 9zM774 -1z" />
    <glyph glyph-name="uniE60F" unicode="&#xe60f;" 
d="M931 684h-42q-10 0 -19.5 -3t-17 -9t-13.5 -13.5t-9 -17t-3 -19.5v-441q0 -34 -17 -63t-46 -45.5t-63 -16.5h-503q-53 0 -89.5 36.5t-36.5 88.5v315q0 52 36.5 89t89.5 37h440q9 0 15 -6.5t6 -14.5v-21q0 -9 -6 -15t-15 -6h-440q-13 0 -24.5 -5t-20 -13.5t-13.5 -20
t-5 -24.5v-315q0 -13 5 -24.5t13.5 -20t20 -13.5t24.5 -5h503q10 0 19.5 3.5t17.5 9t13.5 13.5t9 17.5t3.5 19.5v189v252q0 52 36.5 88.5t88.5 36.5h42q9 0 15 -6t6 -15v-21q0 -5 -2.5 -10t-7.5 -8t-11 -3zM177 -7q26 0 44.5 -18.5t18.5 -44.5t-18.5 -44.5t-44.5 -18.5
t-44.5 18.5t-18.5 44.5t18.5 44.5t44.5 18.5zM774 -1q31 0 52.5 -21.5t21.5 -52t-21.5 -52t-52 -21.5t-52 21.5t-21.5 51.5q0 44 38 65q17 9 35 9zM774 -1z" />
    <glyph glyph-name="uniE610" unicode="&#xe610;" 
d="M767 300q0 5 -2 10t-6 9l-422 422q-7 7 -18 7t-18.5 -7.5t-7.5 -18t8 -18.5l404 -404l-404 -404q-8 -7 -8 -17.5t8 -18.5q4 -4 8.5 -5.5t9.5 -1.5t10 1.5t8 5.5l422 422q8 8 8 18z" />
    <glyph glyph-name="uniE611" unicode="&#xe611;" 
d="M709 713q-58 0 -109.5 -27t-87.5 -76q-35 49 -86.5 76t-109.5 27q-104 0 -178.5 -81t-74.5 -195q0 -32 6.5 -62t19.5 -57.5t22 -44t26 -42.5q26 -42 71.5 -92.5t86.5 -89.5t88 -79.5t66 -55.5t31 -25q14 -11 32 -11q9 0 17.5 3t15.5 8q12 10 31 25t66 55.5t88 79.5
t86 89.5t72 92.5q23 35 35 57.5t25 64.5t13 84q0 114 -74 195t-178 81zM842 266q-25 -40 -68.5 -88t-87 -88.5t-83.5 -75.5t-65 -55l-26 -19q-9 7 -26 20.5t-63 53t-86 77t-84.5 86.5t-69.5 89q-21 33 -32.5 53.5t-21 52.5t-9.5 65q0 89 57.5 151.5t138.5 62.5
q59 0 107.5 -35t71.5 -92h1q1 -6 6 -10t10 -4q13 0 17 14q24 57 72.5 92t107.5 35q81 0 138.5 -62.5t57.5 -151.5q0 -47 -16 -84t-47 -87zM842 266z" />
    <glyph glyph-name="uniE612" unicode="&#xe612;" 
d="M607 45q-5 0 -10 1.5t-8.5 4.5t-6.5 7t-5 8.5t-2 10.5v351q0 14 9.5 23t22.5 9q9 0 16.5 -4t11.5 -11.5t4 -16.5v-351q0 -14 -9 -23t-23 -9v0zM416 45q-9 0 -16.5 4t-11.5 11.5t-4 16.5v351q0 9 4 16.5t11.5 11.5t16.5 4q13 0 22.5 -9t9.5 -23v-351q0 -14 -9.5 -23
t-22.5 -9v0zM927 588h-160v64q0 26 -12.5 48.5t-34.5 35t-48 12.5h-320q-26 0 -48.5 -12.5t-35 -35t-12.5 -48.5v-64h-160q-9 0 -16.5 -4t-11.5 -11.5t-4 -16.5q0 -13 9 -22.5t23 -9.5h831q13 0 22.5 9.5t9.5 22.5q0 9 -4 16.5t-11.5 11.5t-16.5 4v0zM320 652q0 14 9 23
t23 9h320q5 0 10 -1.5t9 -4.5t6.5 -7t4 -8.5t1.5 -10.5v-64h-383v64v0zM735 -147h-447q-40 0 -68 28t-28 68v480q0 9 4 16t11.5 11.5t16.5 4.5q13 0 22.5 -9.5t9.5 -22.5v-480q0 -13 9 -22.5t23 -9.5h447q14 0 23 9.5t9 22.5v479q0 6 2.5 12t7 10.5t10.5 7t12.5 2.5
t12.5 -2.5t10 -7t6.5 -10.5t2.5 -12v-479q0 -40 -28 -68t-68 -28v0zM735 -147z" />
    <glyph glyph-name="uniE613" unicode="&#xe613;" 
d="M709 713q-58 0 -109.5 -27t-87.5 -76q-35 49 -86.5 76t-109.5 27q-104 0 -178.5 -81t-74.5 -195q0 -32 6.5 -62t19.5 -57.5t22 -44t26 -42.5q26 -42 71.5 -92.5t86.5 -89.5t88 -79.5t66 -55.5t31 -25q14 -11 32 -11q9 0 17.5 3t15.5 8q12 10 31 25t66 55.5t88 79.5
t86 89.5t72 92.5q23 35 35 57.5t25 64.5t13 84q0 114 -74 195t-178 81z" />
    <glyph glyph-name="uniE614" unicode="&#xe614;" 
d="M228 300q0 3 0.5 5.5t1.5 5t2 4.5t3 4l422 422q8 7 18.5 7t18 -7.5t7.5 -18t-7 -18.5l-404 -404l404 -404q7 -7 7 -17.5t-7 -18.5q-5 -5 -12 -6.5t-13.5 0t-11.5 6.5l-422 422q-7 8 -7 18z" />
    <glyph glyph-name="uniE615" unicode="&#xe615;" 
d="M512 748q-73 0 -141.5 -22.5t-123.5 -64t-96.5 -96.5t-64 -123.5t-22.5 -141.5t22.5 -141t64 -123t96.5 -96.5t123.5 -64t141.5 -22.5q91 0 173.5 35.5t142.5 95t95.5 142.5t35.5 174q0 171 -113 298q-109 123 -271 146q-32 4 -63 4zM720 269h-180v-179q0 -5 -1 -8.5
t-3 -7t-4.5 -6t-6 -4.5t-7.5 -3t-8 -1q-8 0 -14.5 4t-10.5 10.5t-4 15.5v179h-180q-8 0 -15 4t-11 11t-4 15q0 12 9 20.5t21 8.5h180v180q0 13 8.5 21.5t20.5 8.5q8 0 15 -4t11 -11t4 -15v-180h180q5 0 9.5 -1.5t8 -4t6 -6t4 -8t1.5 -9.5t-1.5 -9.5t-4 -8t-6 -6.5t-8 -4.5
t-9.5 -1.5z" />
    <glyph glyph-name="uniE616" unicode="&#xe616;" 
d="M515 684q-84 0 -161 -32.5t-132.5 -88.5t-88.5 -132.5t-33 -161.5q0 -112 55.5 -207.5t151.5 -151.5t208.5 -56t208 56t151 151.5t55.5 208t-55.5 208t-151 151t-208.5 55.5zM515 -91q-98 0 -181 48t-131 131.5t-48 181t48 180.5t131 131.5t181 48.5t181 -48.5
t131.5 -131.5t48.5 -181q0 -36 -7.5 -72t-21 -68t-33.5 -61t-44 -53.5t-53 -44t-61 -33.5t-68 -21t-73 -7zM138 575q11 59 56 93t98 24q11 -2 20 4.5t12 17.5q1 5 -0.5 10.5t-4.5 9.5t-7.5 7t-9.5 4q-49 10 -95.5 -8.5t-79.5 -58.5t-43 -93q-1 -7 1.5 -14t8 -11.5t12.5 -5.5
l5 -1q10 0 17.5 6.5t9.5 15.5zM944 585q-15 81 -79 128t-138 32q-11 -2 -17.5 -11t-4.5 -20t11.5 -17.5t20.5 -4.5q15 3 29.5 2t29 -5.5t27 -12t23.5 -18.5t20 -23.5t15.5 -27.5t9.5 -32q2 -9 9.5 -15.5t17.5 -6.5q2 0 5 1q11 2 17 11t4 20zM722 279h-189v209q0 8 -3.5 14
t-10 9.5t-13.5 3.5q-11 0 -19 -8t-8 -19v-236q0 -12 8 -20t19 -8h216q11 0 19 8t8 19.5t-8 19.5t-19 8zM722 279z" />
    <glyph glyph-name="uniE617" unicode="&#xe617;" 
d="M998 298v205q-24 21 -51.5 37t-50 23.5t-41 12.5t-28.5 6l-10 1q-71 46 -142 70t-126 28.5t-108 -4.5t-87 -22.5t-65 -32.5t-40.5 -26.5t-14.5 -12.5q-37 -1 -72 -9.5t-59 -20t-42.5 -23t-26.5 -19.5l-9 -8v-205q-25 -34 -25 -76v-72v-209h52h51h51v51v26h716v-26v-51h51
h51h52v51v158v52v20q0 42 -26 76zM76 485q77 50 166 50q186 157 420 76q90 -31 149 -77q86 -12 136 -56v-138q-8 3 -16.5 5.5t-17 3.5t-17.5 1h-53q-11 22 -26.5 40t-35.5 30.5t-43.5 19.5t-48.5 7t-48.5 -7t-43.5 -19.5t-36 -30.5t-26 -40h-47q-21 44 -62 70.5t-91 26.5
q-15 0 -29 -2t-26.5 -6.5t-25 -11t-23 -15t-20 -18t-17 -20.5t-13.5 -24h-53q-27 0 -52 -11v146zM786 350h-195q37 49 97.5 49t97.5 -49zM432 350h-195q37 49 98 49q29 0 54.5 -13t42.5 -36zM972 202v-52v-158h-51v26v51h-51h-716h-51v-51v-26h-51v230h-1q0 32 22.5 54.5
t54.5 22.5h768q21 0 38.5 -10t27.5 -28t10 -39v-20z" />
    <glyph glyph-name="uniE618" unicode="&#xe618;" 
d="M895 438h-75v179q0 3 -0.5 9t-5 22t-12 28.5t-23.5 25t-38 16.5q0 1 -1 3t-4.5 7.5t-8 10.5t-12.5 11.5t-17.5 10.5t-23 6.5t-28.5 2.5q-3 -1 -8.5 -2t-20 -8t-25.5 -17t-20.5 -29.5t-10.5 -44.5h167h2q1 0 3.5 -0.5t5.5 -1.5t6.5 -3t6.5 -4.5t6.5 -7t5.5 -9.5t3.5 -12.5
t1.5 -15.5v-177h-257v102v51h-52h-26h-50v-26h-52v26v51h-51h-25h-52v-51v-153h-76q-53 0 -90.5 -37.5t-37.5 -90.5v-411v-50h51h51h51v50v358q0 9 6.5 14.5t14.5 5.5h675q9 0 15 -5.5t6 -14.5v-358v-50h51h51h51v50v411q0 35 -17 64.5t-46.5 46.5t-64.5 17zM434 540h26
v-102h-26v102zM332 515h52v-77h-52v77zM256 591h25v-153h-25v153zM972 -101h-51v358q-1 29 -22 50t-50 21h-675q-29 0 -50 -21t-22 -50v-358h-51v411q0 21 10.5 39t28 28t38.5 10h767q32 0 54.5 -22.5t22.5 -54.5v-411z" />
    <glyph glyph-name="uniE619" unicode="&#xe619;" 
d="M905 239q-10 11 -24.5 16.5t-34.5 5.5h-666q-35 0 -54 -17q-21 -19 -21 -56v-282h139v62h538v-62h138v282q0 33 -15 51zM198 14v-62h-47v236q0 14 7 20q3 4 8 5.5t12 1.5h2h666h1q25 0 26 -27v-236h-45v62h-630zM766 694h-527v-323h527v323zM285 418v230h435v-230h-435z
M649 500q-21 0 -21 -23t21 -23q22 0 22 23t-22 23z" />
    <glyph glyph-name="uniE61A" unicode="&#xe61a;" 
d="M512 -36q-9 0 -17.5 0.5t-16.5 1t-16 1.5l-18 2l-16 2l-197 -119v199q-51 36 -89 83.5t-58.5 104.5t-20.5 118q0 107 60 197.5t163.5 143t225.5 52.5t225.5 -52.5t163.5 -143t60 -197.5q0 -80 -35.5 -152.5t-95.5 -125.5t-143.5 -84t-174.5 -31zM512 694
q-107 0 -197.5 -45t-143 -122.5t-52.5 -169.5q0 -84 45 -156.5t123 -119.5l-2 -130l132 80q48 -11 95 -11q80 0 153 27t125.5 72t83.5 107.5t31 130.5q0 140 -115 238.5t-278 98.5zM737 301q-24 0 -40.5 16.5t-16.5 39.5t16.5 39.5t40 16.5t40 -16.5t16.5 -39.5
q0 -35 -32 -50q-12 -6 -24 -6zM512 301q-11 0 -21.5 4.5t-18 12t-12 18t-4.5 22t4.5 21.5t12 17.5t18 12t21.5 4.5q23 0 39.5 -16.5t16.5 -39.5q0 -35 -31 -50q-12 -6 -25 -6zM287 301q-23 0 -39.5 16.5t-16.5 39.5t16.5 39.5t40 16.5t40 -16.5t16.5 -39.5q0 -11 -4.5 -21.5
t-12 -18t-18 -12t-22.5 -4.5z" />
    <glyph glyph-name="uniE61B" unicode="&#xe61b;" horiz-adv-x="2158" 
d="M127 270h765v-287q0 -14 -8 -22t-16 -9h-8h-701q-3 0 -8.5 0.5t-14.5 8.5t-9 22v287zM351 238h-192v-255h192v255zM637 238h-255v-63h255v63zM637 159h-255v-176h255v176zM860 238h-191v-255h191v255zM191 -48h32v-32h-32v32zM797 -48h32v-32h-32v32zM319 207h10v-64h-10
v64zM690 207h11v-64h-11v64zM478 207h64v-11h-64v11zM478 143h64v-11h-64v11zM765 477l-32 -47h-446l-32 47q5 4 13.5 7.5t19 7t22.5 7t24.5 7t24 6.5t21.5 5.5t18 4t12 2.5l4 1l1 160h190v-160q6 -1 14.5 -3.5t32.5 -8.5t43.5 -12t40 -12.5t29.5 -11.5z" />
    <glyph glyph-name="uniE61C" unicode="&#xe61c;" 
d="M959 381q-1 17 -10 31.5t-24 22.5t-32 8q-27 0 -46 -18t-21 -44v-134h-412q-9 38 -39 62.5t-69 24.5h-108v292q-2 27 -21 45.5t-46 18.5t-46 -18.5t-21 -45.5v-670v-45h45h44h45v45h628v-45h45h44h44v45v425zM153 -44h-44v670h1q1 8 7 13.5t14 5.5q3 0 5.5 -0.5t4.5 -2.5
l4 -2q2 -2 3.5 -4t2.5 -4.5t2 -5.5v-670zM198 289h108q20 0 37 -11.5t25 -30.5h-170v42zM826 0h-628v202h628v-202zM915 -44h-44v424q2 8 8 13t14 5t14 -5t7 -13h1v-424zM499 379q10 -7 20 -11q12 -4 25 -4t24 4q6 2 11 5t9 6q2 1 4 3l2 2q2 2 3 3.5t2.5 3.5t2.5 4q5 9 5 19
q0 13 -8 24l2 2l2 2l6 10q2 6 2 12q0 3 -1 6t-3 5q0 2 -1 3t-2.5 2t-3 1.5t-2.5 1.5q-3 1 -6 1.5t-6 -0.5q-2 0 -3.5 -1t-3 -1.5t-3.5 -1.5q-4 -4 -7 -8l-3 -10v-1q-1 0 -1 -1q-5 2 -10 2.5t-11 0.5h-8q-3 0 -7 -1q0 5 -3 10q-2 2 -3.5 4t-3.5 4q-2 1 -3.5 1.5t-3 1.5
t-3.5 1q-3 1 -5.5 0.5t-5.5 -1.5q-7 -3 -10 -8t-4 -11l2 -12q3 -6 6 -10q-1 -2 -2.5 -4t-3 -4.5t-2.5 -4.5q-3 -7 -3 -15q0 -10 5 -19t13 -16zM531 407q1 1 3 1.5t5 0.5l5 1q2 0 4 -1q3 0 5 -0.5t3.5 -1.5t1.5 -3.5t-1 -5t-2.5 -5t-4.5 -3.5l-6 -2q-4 0 -6.5 1.5t-4.5 4
t-3 5t-1 5.5zM445 357q1 -1 2 -2.5t3 -2.5t3.5 -2t3.5 -2q16 -7 26 -11q0 -1 -1 -2v-1v-4q0 -5 1 -10t3 -10q-3 -1 -5 -1.5t-4 -0.5q-2 -1 -4.5 -1.5t-4.5 -1.5q-2 0 -3.5 -0.5t-2.5 -1.5l-2 -2q-1 -1 -2 -3q-4 -5 -5 -12q-1 -3 -0.5 -6.5t0.5 -6.5q2 -8 6 -13l2 -2
q1 -1 2.5 -2t3 -1.5t3.5 -1.5q6 -2 15 1q13 5 23 9q5 2 9 4l8 4l12 6h1h4h4h2h2q3 -1 15 -8q5 -2 10.5 -4.5t12 -5t14.5 -5.5q9 -3 15.5 -1t10.5 7t5.5 12.5t0.5 13.5q0 4 -1 7t-3 5q-4 6 -10 7q-2 1 -3.5 1.5t-3.5 0.5t-3.5 0.5t-2.5 1.5q2 4 3 10l1 11v2v2q0 3 -1 4l4 2h2
q2 1 3.5 2t3 1.5t3.5 1.5l4 2q9 4 13 9.5t5 11.5t-1 11t-5 9q-2 1 -4.5 2.5t-5.5 1.5q-6 1 -12 -1l-4 -2q-1 0 -2.5 -0.5t-2.5 -1.5q-5 -8 -12 -15q-3 -3 -7 -6t-9 -5q-8 -5 -19 -8q-2 0 -4 -1h-4q-2 -1 -4.5 -1t-4.5 -0.5t-5 -0.5q-11 0 -22 3t-20 8q-1 1 -3 2.5t-3 2.5
l-4 2l-2 2l-4 4q-3 3 -6 7t-5 8q-1 1 -3 2q-2 0 -3 1q-3 1 -6 1.5t-6 -0.5q-5 -1 -9 -4.5t-6 -8.5t-1 -11t6 -12z" />
    <glyph glyph-name="uniE61D" unicode="&#xe61d;" 
d="M881 569h-740l-77 -201q0 -45 32.5 -77.5t78.5 -32.5q19 0 36 5.5t31 15.5t24 23.5t16 30.5t6 35q0 -45 32.5 -77.5t78.5 -32.5q19 0 36 5.5t31 15.5t24 23.5t16 30.5t6 35q0 -30 15 -55t40.5 -40t55.5 -15q19 0 35.5 5.5t30.5 15.5t24 23.5t16 30.5t6 35q0 -45 33 -77.5
t79 -32.5q19 0 36 5.5t31 15.5t24 23.5t16 30.5t6 35zM819 223v-256h-614v256h-26h-38v-269q0 -17 15.5 -34t32.5 -17h644q11 0 22.5 8t19 20t7.5 23v269h-51h-12zM881 570l2 -1zM192 620h640q11 0 19.5 5t13.5 14t5 19q0 17 -11 28t-27 11h-640q-8 0 -15 -3t-12 -8
t-8 -12.5t-3 -15.5q0 -16 11 -27t27 -11z" />
    <glyph glyph-name="uniE61E" unicode="&#xe61e;" 
d="M915 -162zM185 331q-50 0 -85.5 35.5t-35.5 85.5h54q0 -28 19.5 -47.5t47.5 -19.5t47.5 19.5t19.5 47.5h54q0 -33 -16 -61t-44 -44t-61 -16zM406 331q-33 0 -61 16t-44 44t-16 61h54q0 -28 19.5 -47.5t47 -19.5t47 19.5t19.5 47.5h55q0 -50 -35.5 -85.5t-85.5 -35.5z
M612 331q-50 0 -85.5 35.5t-35.5 85.5h55q0 -28 19.5 -47.5t47 -19.5t47 19.5t19.5 47.5h55q0 -25 -10 -47.5t-26 -38.5t-38.5 -25.5t-47.5 -9.5zM838 331q-50 0 -85.5 35.5t-35.5 85.5h54q0 -28 19.5 -47.5t47 -19.5t47 19.5t19.5 47.5h55q0 -50 -35.5 -85.5t-85.5 -35.5z
M112 425l-49 25l132 272l48 -25zM195 723h653v-54h-653v54zM908 431l-112 272l50 19l113 -272zM172 358h55v-477h-55v477zM175 -65h691v-55h-691v55zM689 87q-47 0 -79.5 32.5t-32.5 79t32.5 79t79.5 32.5q30 0 55.5 -15t40.5 -40.5t15 -56t-15 -56t-40.5 -40.5t-55.5 -15z
M689 256q-16 0 -29 -8t-21 -21t-8 -29q0 -23 17 -40t40.5 -17t40.5 17t17 40.5t-17 40.5t-40 17zM866 -73h-54q0 66 -36.5 113t-86.5 47q-34 0 -62 -21.5t-44.5 -58.5t-16.5 -80h-55q0 57 24 105t64.5 75.5t89.5 27.5q73 0 125 -61t52 -147z" />
    <glyph glyph-name="uniE61F" unicode="&#xe61f;" 
d="M806 477q69 0 118.5 48.5t49.5 117.5l-1 1v1v1h1q0 69 -49.5 117.5t-119 48.5t-118.5 -48.5t-49 -117.5v-2v-1q0 -17 5 -38l-307 -199q-23 22 -53.5 34.5t-64.5 12.5q-27 0 -52.5 -8t-46.5 -23.5t-36.5 -36t-24 -45.5t-8.5 -52l1 -1v-1h-1v-2q0 -68 49.5 -116.5
t118.5 -48.5q74 0 125 55l295 -214v-3v-1v-1v-2q0 -68 49 -116.5t118.5 -48.5t119 48.5t49.5 116.5q0 1 -0.5 1.5t-0.5 1t1 0.5v1q0 34 -13.5 64.5t-36 52.5t-53.5 35.5t-65 13.5q-44 0 -81.5 -21.5t-60.5 -56.5l-282 204q4 19 4 35v1v1v2q0 19 -7 43l305 198
q50 -52 122 -52z" />
    <glyph glyph-name="uniE620" unicode="&#xe620;" 
d="M824 -96q5 -28 -9.5 -39t-40.5 2l-253 125l-248 -138q-26 -14 -40.5 -4t-10.5 39l43 281l-206 193q-21 19 -16 36.5t34 22.5l280 48l121 257q12 27 30 27t31 -25l130 -251l281 -34q29 -4 35 -21t-15 -37l-199 -204zM824 -96z" />
    <glyph glyph-name="uniE621" unicode="&#xe621;" 
d="M971 -121l-308 311q57 69 74.5 155.5t-7 172t-88.5 149.5q-49 50 -113 77t-134 27q-145 0 -248 -104q-50 -51 -76.5 -117t-26.5 -133t26.5 -133t76.5 -117q103 -103 248 -103q129 0 227 84l307 -310q4 -4 9.5 -6.5t11.5 -2.5t11 2.5t9.5 6.5t6.5 9.5t2 11t-2 11t-6 9.5z
M601 209q-41 -42 -94.5 -64t-112 -22t-111.5 22t-95 64q-85 86 -85 208t85 209q28 27 61 46.5t70 29.5t76 10q120 0 206 -86q56 -57 76 -133t0 -152t-76 -132zM541 447h-109v111q0 12 -8.5 20.5t-20.5 8.5q-8 0 -15 -4t-11 -10.5t-4 -14.5v-111h-109q-4 0 -8 -1t-7 -3
t-6 -4.5t-4.5 -5.5t-2.5 -7t-1 -8q0 -12 8.5 -20.5t20.5 -8.5h109v-111q0 -12 9 -20.5t21 -8.5t20.5 8.5t8.5 20.5v111h109q13 0 21.5 8.5t8.5 20.5q0 6 -2.5 11.5t-6.5 9.5t-9.5 6t-11.5 2z" />
    <glyph glyph-name="uniE622" unicode="&#xe622;" 
d="M935 378q-15 22 -33 44l-1 1v0l-11 13v1q-23 26 -42 44q-33 31 -53 31h-155h-7q-3 0 -6 -1v69q0 16 -8 30t-22 22t-30 8h-456q-16 0 -30 -8t-22 -22t-8 -30v-474q0 -10 3 -19t8.5 -16.5t13 -13t16.5 -9t19 -3.5h70q5 -25 21.5 -46t40.5 -33t50 -12q41 0 72.5 26t40.5 65
h161q20 0 36 13q16 -13 37 -13h15q5 -25 21.5 -46t40 -33t50.5 -12q41 0 72.5 26t40.5 65h33q25 0 42.5 18t17.5 43v191q0 8 -3.5 19.5t-15.5 31.5q-8 14 -19 30zM293 2q-28 0 -47.5 19.5t-19.5 47.5t19.5 48t47.5 20t48 -20t20 -48q0 -40 -36 -59q-15 -8 -32 -8zM579 452
v-346q0 -3 -1 -5t-2.5 -4t-4 -3t-4.5 -1h-161q-8 39 -38.5 64.5t-70.5 26.5h-1v0v0v0v0h-1v0v0v0v0h-1v0v0v0v0v0v0h-1v0v0v0h-1v0v0h-1v0v0v0v0v0h-1v0v0v0q-40 -1 -70.5 -26.5t-38.5 -64.5h-70q-5 0 -9 3.5t-4 9.5v474q2 11 13 12h456q2 0 4.5 -1t4 -2.5t2.5 -4t1 -4.5
v-128zM767 2q-28 0 -47.5 19.5t-19.5 47.5q0 19 9 34.5t24.5 24.5t33.5 9q28 0 48 -20t20 -48q0 -40 -36 -59q-15 -8 -32 -8zM926 106q0 -5 -4 -9t-9 -4h-33q-8 37 -37 62.5t-67 28.5v0h-1v0h-1v0v0v0h-1v0h-1v0v0v0v0v0v0h-1v0v0v0v0v0v0v0v0h-1v0v0v0v0h-1v0v0v0v0h-1v0v0
v0v0v0h-1v0v0v0h-1v0v0v0v0h-1v0v0v0v0h-1v0v0v0v0v0v0v0h-1v0h-1v0v0h-1h-1v0h-1v0v0v0v0v0v0v0v0h-1q-25 -2 -47 -14.5t-36.5 -32.5t-19.5 -44h-15q-12 2 -13 13v346q0 3 1.5 6t4.5 5t7 2h152q9 -5 27 -22l4 -4h-74q-25 0 -42.5 -17.5t-17.5 -42.5v-73q0 -16 8 -30t22 -22
t30 -8h177v-140zM926 294h-177q-5 0 -9 3.5t-4 8.5v73q0 2 1 4t2 3.5t2.5 3t3.5 2t4 0.5h116q8 -11 16 -21l1 -1q7 -9 13 -18l12 -18l3 2l-3 -2l7 4l-7 -4l3 -5q4 -7 7 -12.5t4.5 -8.5t2.5 -6t2 -4v-1v-3z" />
    <glyph glyph-name="uniE623" unicode="&#xe623;" 
d="M577 726q-13 13 -31 20t-36 7t-36 -7t-31 -20l-396 -396q-6 -6 -8 -13.5t0 -15t8 -13.5q3 -3 7.5 -5t9 -3t9 0t8.5 3t8 5l395 396q10 10 25.5 10t25.5 -10l397 -397q2 -2 4.5 -3.5t5.5 -3t5.5 -2t5.5 -0.5q12 0 21 9t9 21t-9 21zM203 352q-12 0 -20.5 -9t-8.5 -21v-371
q0 -11 3.5 -23t11.5 -25t18.5 -23.5t28 -17.5t38.5 -7l469 1q1 -1 2 -1h3h5q39 1 63 22q29 25 29 71v106q0 28 -26.5 53.5t-85.5 25.5h-279l70 70q9 9 9 21t-8.5 20.5t-21 8.5t-20.5 -8l-126 -126q-4 -4 -6.5 -9.5t-2.5 -11.5t2.5 -11.5t6.5 -9.5l133 -132q8 -9 20 -9
q6 0 11.5 2t9.5 7q9 8 9 20.5t-9 20.5l-88 88h2h1h287q18 0 30.5 -4t17 -8t5.5 -8v-106q0 -10 -2 -16.5t-7 -10.5q-9 -8 -30 -7h-473q-35 0 -41 37v2v369q0 12 -9 21t-21 9zM845 310q0 13 -9 21.5t-21 8.5t-20.5 -8.5t-8.5 -21.5v-114q0 -8 4 -14.5t10.5 -10.5t14.5 -4
q12 0 21 8.5t9 20.5v114zM845 310z" />
    <glyph glyph-name="uniE624" unicode="&#xe624;" 
d="M862 617q-5 4 -11 7.5t-12.5 5t-13.5 1.5h-4h-23q-60 0 -108 11q-24 6 -52 24t-54 39.5t-28 22.5q-14 9 -30 9t-30 -9l-4 -4q-5 -4 -12 -10.5t-16.5 -14.5t-21 -16.5t-24 -16.5t-26.5 -14.5t-27 -9.5q-48 -11 -109 -11h-23h-4q-21 0 -37 -14q-17 -16 -17 -39v-135
q0 -101 18.5 -187t46 -141.5t66 -100t70.5 -68t67 -40t49.5 -20.5t23.5 -6q5 -1 10 -1q2 0 4.5 0.5t5.5 0.5q17 3 42 11t83 46t102.5 93.5t80 164.5t35.5 248v135q0 23 -17 39zM825 443q0 -73 -10 -137.5t-27.5 -111.5t-40 -86.5t-47 -65.5t-49.5 -46.5t-47.5 -32t-40 -18.5
t-27.5 -10l-10 -2q-12 2 -32 8.5t-71 40t-90.5 83.5t-71.5 150t-32 228v135q11 -1 27 -1q17 0 34.5 1t42 4t45.5 8q33 8 70 31.5t58 42.5l20 20q9 -9 23.5 -22t54.5 -38.5t73 -33.5q16 -4 34 -6.5t34 -4t28.5 -2t24.5 -0.5l27 1v-135zM694 471l-209 -208l-104 103
q-4 4 -9 6.5t-10 3t-10 0t-9.5 -3t-8.5 -6.5q-10 -9 -10 -23t10 -23l121 -121q1 -1 2.5 -3t2.5 -3q10 -10 25 -10q14 0 24 10q1 1 2.5 3t2.5 3l227 226q4 3 6.5 8t3 10t0 10t-3 9.5t-6.5 8.5q-10 10 -23.5 10t-23.5 -10z" />
    <glyph glyph-name="uniE625" unicode="&#xe625;" 
d="M937 612h-20q26 9 26 35q0 11 -5 19.5t-14 13.5t-19 5q-6 0 -12 -2t-10.5 -5.5t-8 -8t-5.5 -10t-2 -12.5q0 -12 7 -21.5t19 -13.5q-21 -1 -40.5 -8.5t-35 -21t-25.5 -30.5h-215q-7 0 -14 -6.5t-7 -13.5v-21q0 -8 7 -14t13 -6h200v0v-121h-353q-8 0 -14 -6t-6 -14v-21
q0 -5 2.5 -9.5t7.5 -7.5t10 -3h353v-61v-61h-4h-154h-210h-154q-8 0 -14 -5.5t-6 -14.5v-20q0 -3 1 -5.5t2 -4.5t3 -4t4.5 -3.5t5 -2t4.5 -0.5h154h210h154h2h2v-61q0 -25 -18 -43t-43 -18h-266h-1h-364q-5 0 -10 -2.5t-7.5 -7t-2.5 -10.5v-20q0 -8 6 -14t14 -6h146h485
q25 0 47.5 9.5t38.5 25.5t25.5 38.5t9.5 47.5v425q0 25 18 42.5t43 17.5h40q9 0 14.5 6t5.5 14v21q0 5 -2.5 9.5t-7 7.5t-10.5 3z" />
    <glyph glyph-name="uniE626" unicode="&#xe626;" 
d="M930 335q-13 9 -29 10t-30.5 -3.5t-23 -8t-14.5 -7.5q-148 -87 -182 -106q-4 -2 -8 -3t-7 -1h-8q-5 0 -8.5 1t-7.5 2.5t-7 3t-5.5 3t-4.5 2.5q-11 13 -21.5 26t-19.5 26t-17.5 25.5t-16 24.5t-13.5 24t-12 23q-5 13 -7.5 24t-1.5 19.5t3 15t5.5 11t6 6.5t3.5 4q3 1 43 25
t91.5 54t70.5 40q51 26 58 55q6 22 -10 45q-11 16 -51.5 31.5t-98 25t-132.5 -3.5t-141 -52q-45 -26 -80 -58.5t-56 -64.5t-37 -66.5t-21.5 -65t-10 -60t-3 -50.5t0.5 -37l1 -13q0 -10 -3 -20.5t-6.5 -18.5t-7 -14.5t-5.5 -9.5l-3 -4l-30 -31q-4 -4 -6.5 -10t-2.5 -12
t2.5 -11.5t7.5 -9.5q9 -9 22 -9t22 9l32 34q6 7 13 17.5t17 37t10 52.5l-1 15q1 15 -0.5 34t2.5 44.5t8.5 52t18 56t31.5 56.5t48 54.5t68 49.5q43 25 90.5 37.5t84.5 13t72.5 -5.5t55.5 -13t33 -14q-7 -5 -21 -12q-48 -24 -209 -122q-12 -7 -22 -20.5t-18.5 -33t-7 -46.5
t15.5 -56q35 -77 112 -167q10 -12 30.5 -20.5t47 -10.5t52.5 12q15 9 61 35.5t84 48.5l39 23q3 3 8 5t9.5 3.5t8 2.5t4.5 1q0 -1 0.5 -3.5t1.5 -11t-2 -21.5q-17 -110 -98 -185q-73 -65 -185 -85q-34 -6 -70 -6.5t-55.5 1.5t-52.5 6q-36 7 -73 5t-60 -22q-25 -21 -33.5 -29
t-12 -16t-1 -18.5t11 -17t18.5 -6.5l8 1q10 3 17 12q6 5 32 27q9 8 30.5 8t54.5 -5q34 -4 56 -6t62.5 -1.5t78.5 7.5q77 13 139 46.5t101.5 79t62.5 94.5t31 101q10 70 -27 95zM930 335z" />
    <glyph glyph-name="uniE627" unicode="&#xe627;" 
d="M648 208q0 -58 -39.5 -98.5t-96 -40.5t-96.5 40.5t-40 98.5t40 99t96.5 41t96 -41t39.5 -99zM857 582h-507v1v30q0 15 -10 25t-24 10h-110q-14 0 -24 -10t-10 -25v-30v-1h-5q-28 0 -48.5 -20.5t-20.5 -49.5v-493q0 -29 20.5 -49.5t48.5 -20.5h690q28 0 48.5 20.5
t20.5 49.5v493q0 19 -9.5 35t-25 25.5t-34.5 9.5zM345 502q8 0 15 -4.5t11.5 -11.5t4.5 -16q0 -13 -9 -22.5t-22 -9.5t-22 9.5t-9 22.5t9 22.5t22 9.5zM512 11q-80 0 -136.5 58t-56.5 139.5t56.5 139.5t136.5 58t136.5 -58t56.5 -140q0 -92 -70 -151q-54 -46 -123 -46z
M844 444h-195q-14 0 -24 8t-10 19t10 19t24 8h195q14 0 24 -8t10 -19t-10 -19t-24 -8z" />
    <glyph glyph-name="uniE628" unicode="&#xe628;" 
d="M940 716h-860q-21 0 -35.5 -15t-14.5 -36v-730q0 -21 14.5 -35.5t35.5 -14.5h141v63h-128v235h136q11 0 18.5 7.5t7.5 18.5q0 5 -2 10t-5.5 8.5t-8 5.5t-10.5 2h-136v140h136q7 0 13 3.5t9.5 9.5t3.5 13q0 11 -7.5 18.5t-18.5 7.5h-136v225h291v-261q0 -11 7.5 -18.5
t18 -7.5t18.5 7.5t8 18.5v261h151v-261q0 -11 8 -18.5t18 -7.5q7 0 13 3.5t9.5 9.5t3.5 13v261h287v-223h-134q-10 0 -18 -7.5t-8 -18.5q0 -5 2.5 -10t6 -8.5t8 -5.5t9.5 -2h134v-140h-134q-10 0 -18 -8t-8 -18.5t8 -18t18 -7.5h134v-237h-128v-63h142q20 0 35 14.5t15 35.5
v730q0 21 -15 36t-35 15zM614 210q10 0 18 7.5t8 18.5t-8 18.5t-18 7.5h-204q-11 0 -18.5 -7.5t-7.5 -18.5t7.5 -18.5t18.5 -7.5h76v-262h-103v-63h256v63h-101v262h76z" />
    <glyph glyph-name="uniE629" unicode="&#xe629;" 
d="M896 299q0 -7 -3 -14t-8 -11.5t-11.5 -7.5t-13.5 -3q-14 0 -25 10l-323 323l-1 1l-323 -324q-10 -10 -25 -10q-10 0 -18 5t-13 13t-5 18q0 15 11 26l347 348q2 2 4 3.5t4 2.5l4 2q2 1 5 1l4 2h5v0h2h2q13 -2 23 -11l141 -142v33q0 15 11 25.5t25.5 10.5t25.5 -10.5
t11 -25.5v-106l134 -134q10 -11 10 -25zM824 239v-108v-49v-96q0 -15 -11 -25.5t-25 -10.5h-73v289h-144v-289h-336q-15 0 -25.5 10.5t-10.5 25.5v96v49v108l312 313zM451 239h-144v-145h144v145z" />
    <glyph glyph-name="uniE62A" unicode="&#xe62a;" 
d="M673 379q0 7 -3.5 12t-9 8.5t-11.5 3.5h-338q-10 0 -17 -7t-7 -17q0 -6 3.5 -11.5t8.5 -9t12 -3.5h338q10 0 17 7t7 17zM805 762l-619 -2q-4 0 -8 -1t-6 -3l-6 -6q-2 -2 -3 -6t-1 -7q0 -5 2 -9.5t5 -7.5t7.5 -5t9.5 -2l619 1q32 0 59 -15.5t42.5 -42.5t15.5 -59v-592
q0 -5 2 -9.5t5 -7.5t7.5 -5t9.5 -2q10 0 17 7t7 17v592q0 27 -8.5 52t-23.5 45.5t-35.5 35.5t-45.5 23.5t-52 8.5zM637.5 234q-65.5 0 -112 -46.5t-46.5 -111.5q0 -43 21 -80t57.5 -58t79.5 -21q66 0 112.5 46.5t46.5 112t-46.5 112t-112 46.5zM637 -51q-34 0 -63 17t-46 46
t-17 63q0 52 37 89t89 37t89 -37t37 -89t-37 -89t-89 -37zM311 459h338q10 0 17 7t7 16.5t-7 16.5t-17 7h-338q-10 0 -17 -7t-7 -16.5t7 -16.5t17 -7zM731 98q-4 10 -14 11l-45 7l-20 41q-4 8 -14.5 8t-15.5 -8l-20 -41l-45 -7q-10 -1 -13 -11t4 -17l33 -32l-8 -44
q-2 -11 7 -17q8 -6 17 -1l40 21l41 -21q3 -2 7 -2q3 0 5.5 1t4.5 2q8 7 7 17l-8 44l32 32q4 3 5 8t0 9zM664 67q-6 -6 -4 -15l3 -20l-18 10q-4 2 -8 2q-4 -1 -7 -2l-18 -10l3 20q2 9 -5 15l-14 14l20 3q8 3 12 9l9 19l9 -19q4 -7 13 -9l20 -3zM721 675h-511
q-68 0 -116.5 -48t-48.5 -116v-507q0 -68 48.5 -116.5t116.5 -48.5h511q68 0 116.5 48.5t48.5 116.5v507q0 68 -48.5 116t-116.5 48zM721 -113h-511q-49 0 -83 34t-34 83v507q0 31 15.5 58t42.5 43t59 16h511q32 0 59 -16t42.5 -43t15.5 -58v-507q0 -49 -34 -83t-83 -34z
M203 482zM175 482q0 12 8.5 20.5t20 8.5t20 -8.5t8.5 -20t-8.5 -20t-20.5 -8.5q-5 0 -10.5 2.5t-9 6t-6 9t-2.5 10.5zM203 379zM175 379q0 12 8.5 20t20 8t20 -8t8.5 -20t-8.5 -20t-20 -8t-20 8t-8.5 20z" />
    <glyph glyph-name="uniE62B" unicode="&#xe62b;" 
d="M938 653q-25 30 -75 30h-60h-17h-76h-430q-30 0 -52 -22t-22 -53v-540h-142v-71v-3q2 -29 29 -52.5t60 -22.5h127h397h52q30 0 51.5 21.5t21.5 52.5v551h153l2 10q2 6 3 17.5t-3.5 38t-18.5 43.5zM280 -48h-127q-12 0 -23 4.5t-18 11t-11 14.5t-4 14v3v3v33h511
q-13 -23 -15 -42q-2 -22 7 -41h-320zM769 608v-615q0 -17 -12 -29t-28 -12h-89q-11 12 -13 25.5t1.5 23.5t12.5 26q11 19 9 29l-3 12h-408v540q0 17 12 29.5t29 12.5h490zM930 568h-128v40v45h75q25 -1 39 -19q5 -5 7.5 -11t4 -10.5t2.5 -12t1 -10.5t-0.5 -11.5t-0.5 -10.5z
M609 243h-32v-98h-15v39h-33v-11h-37v14h-32v-45h-21v83h-33v-83h-14v-33h14v-28h33v28h21h12h20v31h37v-28h17h16h70v33h-23v23h45v32h-45v43zM341 497h344v-33h-344v33zM341 412h344v-33h-344v33zM341 335h344v-33h-344v33z" />
    <glyph glyph-name="uniE62C" unicode="&#xe62c;" 
d="M947 275q10 0 17.5 7.5t7.5 17.5v282q0 40 -28.5 68.5t-68.5 28.5h-726q-40 0 -68.5 -28.5t-28.5 -68.5v-585q0 -40 28.5 -68t68.5 -28h726q40 0 68.5 28t28.5 68v108q0 10 -7.5 17.5t-18 7.5t-18 -7.5t-7.5 -17.5v-102q0 -21 -15 -36t-36 -15h-716q-14 0 -26 6.5
t-18.5 18.5t-6.5 26v574q0 21 15 36t36 15h716q21 0 36 -15t15 -36v-277q0 -7 3.5 -12.5t9.5 -9t13 -3.5v0zM296 495q0 6 -4 10t-9 4h-69q-3 0 -6.5 -2t-5 -5t-1.5 -7v-68q0 -13 13 -13h69q3 0 6.5 1.5t5 4.5t1.5 7v68zM296 321q0 6 -4 10t-9 4h-69q-5 0 -9 -4t-4 -10v-68
q0 -3 1 -5.5t2.5 -4.5t4.5 -3t5 -1h69q5 0 9 4t4 10v68zM283 160h-69q-2 0 -4 -0.5t-4 -1.5l-2 -4q-2 -1 -2.5 -3t-0.5 -4v-69q0 -5 4 -9t9 -4h69q2 0 4 0.5t3 2.5l4 2q1 2 1.5 4t0.5 4v69q0 5 -4 9t-9 4zM452 206l-3 -4l-1 -6l-2 -104l-1 -25l129 46l3 4l279 369l-14 10
l-103 78l-11 -13zM732 536l89 -68l-3 25l-269 -355l8 6l-100 -36l24 -17l2 104l-4 -11l277 355zM768 403l20 28l-78 57l-20 -28z" />
    <glyph glyph-name="uniE62D" unicode="&#xe62d;" horiz-adv-x="1025" 
d="M668 460h119q4 0 7 1.5t5 3.5t3.5 5.5t1.5 6.5v120q0 3 -1.5 6t-3.5 5.5t-5 3.5t-7 1h-119q-7 0 -12 -4.5t-5 -11.5v-120q0 -14 13 -16q2 -1 4 -1zM684 580h87v-86h-87v86zM229 460h120q4 0 7 1.5t5 3.5t3.5 5.5t1.5 6.5v120q0 7 -5 11.5t-12 4.5h-120q-4 0 -8 -2t-6 -6
t-2 -8v-120q0 -7 5 -12t11 -5zM246 580h86v-86h-86v86zM229 227h120q7 0 12 5t5 12v120q0 4 -2.5 8t-6 6.5t-8.5 2.5h-120q-3 0 -6 -1.5t-5.5 -4t-3.5 -5.5t-1 -6v-120q0 -7 5 -12t11 -5zM246 347h86v-86h-86v86zM668 227h119q7 0 12 5t5 12v120q0 7 -5 12t-12 5h-119
q-7 0 -12 -5t-5 -12v-120q0 -14 13 -16q2 0 4 -1zM684 347h87v-86h-87v86zM996 -154h-51v936q0 7 -3.5 13.5t-10 10.5t-13.5 4h-812q-4 0 -8.5 -1.5t-7.5 -4t-6 -6t-4 -8t-1 -8.5v-936h-51q-8 0 -14.5 -3.5t-10 -10t-3.5 -14t3.5 -14t10 -10.5t14.5 -4h78h812h78q5 0 9 1.5
t7.5 4t6 6t4 8t1.5 8.5q0 12 -8 20t-20 8zM347 -154h-213v27h213v-27zM643 -154h-114v116q0 4 -2.5 8t-6 6.5t-8.5 2.5q-7 0 -12 -5t-5 -12v-116h-114v209h114v-32q0 -7 5 -12t12 -5t12 5t5 12v32h114v-209zM890 -154h-213v27h213v-27zM890 -94h-213v165q0 7 -5 12t-12 5
h-296q-7 0 -12 -5t-5 -12v-165h-213v860h756v-860zM453 227h120q7 0 12 5t5 12v120q0 2 -0.5 4t-2 4t-3 3.5t-3 2.5t-4 2t-4.5 1h-120q-7 0 -11.5 -5t-4.5 -12v-120q0 -7 4.5 -12t11.5 -5zM470 347h86v-86h-86v86zM453 460h120q3 0 6.5 1.5t5.5 3.5t3.5 5.5t1.5 6.5v120
q0 4 -2.5 8t-6 6t-8.5 2h-120q-7 0 -11.5 -4.5t-4.5 -11.5v-120q0 -7 4.5 -12t11.5 -5zM470 580h86v-86h-86v86z" />
    <glyph glyph-name="uniE62E" unicode="&#xe62e;" 
d="M673 408q-58 0 -111 -22.5t-91 -61t-60.5 -91t-22.5 -110.5q0 -78 38 -143.5t104 -103.5t143 -38q118 0 201.5 83.5t83.5 201.5t-83.5 201.5t-201.5 83.5zM829 191l-186 -186q-8 -8 -16 0l-110 110q-8 8 0 16l35 34q3 4 7.5 4t8.5 -4l67 -67l143 143q8 8 16 0l35 -35
q8 -8 0 -15zM411 -80h-271v768h640v-251q16 -6 31 -14t29 -18v347h-768v-896h410q-28 18 -53 42q-4 4 -10.5 12.5t-7.5 9.5zM200 532h512v-64h-512v64zM200 327v-64h162q16 33 40 64h-202zM329 122h-129v-64h135q-6 31 -6 64z" />
    <glyph glyph-name="uniE62F" unicode="&#xe62f;" 
d="M936 129q0 -114 -80.5 -195t-195.5 -81q-75 0 -138.5 37t-100.5 100.5t-37 138.5t37 139t100.5 100.5t138.5 36.5q115 0 195.5 -80.5t80.5 -195.5zM740 260l-79 -79l-83 82q-3 4 -8 5t-9.5 0t-8.5 -5l-26 -26q-5 -5 -5 -12.5t5 -13.5l83 -82l-79 -79q-6 -5 -6 -12.5
t6 -13.5l24 -24q6 -6 13.5 -6t12.5 6l79 78l83 -83q2 -2 4 -3t4.5 -1.5t5 -0.5t4.5 0.5t4.5 1.5t3.5 3l26 26q6 6 6 13.5t-6 12.5l-83 84l79 78q5 6 5 13.5t-5 12.5l-24 25q-6 5 -13.5 5t-12.5 -5zM408 -73h-271v768h640v-251q7 -2 13 -5l12 -6q6 -3 12 -7l12 -6l12 -8v347
h-768v-896h409q-28 18 -52 42l-4 4q-2 2 -4 4.5t-3.5 4.5t-3.5 4.5t-4 4.5zM200 549h512v-64h-512v64zM200 344v-64h162q16 34 40 64h-202zM329 139h-129v-64h135q-6 31 -6 64z" />
    <glyph glyph-name="uniE630" unicode="&#xe630;" 
d="M895 692h-769q-10 0 -20 -3.5t-18 -9.5t-13.5 -13.5t-9 -17.5t-3.5 -20v-545q0 -26 19 -45t45 -19h296q-23 -12 -45 -28t-32 -26l-11 -10q-20 0 -34 -9.5t-14 -22.5t14 -22.5t34 -9.5h384q14 0 25 4.5t17.5 11.5t6.5 16q0 4 -1.5 7.5t-4 6.5t-5.5 6t-7.5 5t-9 3.5
t-10 2.5t-11.5 1q-35 36 -85 64h262q26 0 45 19t19 45v545q0 26 -19 45t-45 19zM831 115h-243q-2 2 -4.5 3.5t-5 2.5t-5.5 1h-107q-10 0 -17 -7h-259q-6 0 -12.5 1.5t-12 4t-11 6t-9.5 7.5t-7.5 9.5t-6 11t-4 12t-1.5 12.5v384q0 27 19 45.5t45 18.5h641q26 0 45 -18.5
t19 -45.5v-384q0 -9 -2.5 -17t-6.5 -15t-10 -13t-13 -10t-15.5 -6.5t-16.5 -2.5zM619 299q-1 2 -2.5 3.5t-7.5 4t-14 -2.5q-6 -3 -10 -6t-5.5 -6.5t-1.5 -7.5v-10q1 -5 3.5 -11t5.5 -12l5 -11q3 -5 5 -8l2 -4v-2q0 -1 -1 -4t-3 -4q-1 -1 -3.5 -3t-6.5 -5t-8.5 -7t-9.5 -9
l-10 -8q-5 -5 -9.5 -9t-8 -7t-5.5 -4l-2 -2h-22l-68 59v-80l2 -1q0 -1 2 -3.5t4.5 -4.5t7.5 -3.5t11 -1.5h102h2q2 0 5 1t6 4q11 10 36 34t31 30q11 11 0 33l-5 10q-4 8 -8.5 17.5t-8.5 19t-7 15.5zM573 492q-5 5 -12 5t-12 -5l-172 -169q-5 -5 -5.5 -12t4.5 -12l58 -59v1
l80 -69h15q46 41 59 51l3 3q-1 2 -2.5 4t-3 5t-3.5 6.5t-3 7.5l-49 -49q-4 -4 -9.5 -4t-8.5 4l-101 103q-4 4 -4 9.5t4 9.5l138 135q4 4 9.5 4t9.5 -4l101 -100q9 -9 -1 -18l-40 -40q4 -10 11 -25l64 64q5 5 5 12t-5 12zM592 319l11 11l-28 28l23 23l-14 14l-23 -23l-27 28
l-11 -12l27 -27l-15 -15l-27 27l-11 -11l23 -23l-80 -21l15 -15l48 14q19 6 24 9l1 -1q-6 -14 -23 -72l16 -16l21 80l24 -24l11 11l-28 28l15 15z" />
    <glyph glyph-name="uniE631" unicode="&#xe631;" 
d="M806 333q-8 0 -15 -3t-12 -8.5t-8 -12.5t-3 -14v-311h-634v311q0 15 -11 26.5t-26.5 11.5t-27 -11.5t-11.5 -26.5v-315q0 -29 21 -50t51 -21h642q30 0 51 21t21 50v315q0 10 -5 18.5t-14 14t-19 5.5zM999 516v3l-1 3q-1 3 -1 4t-1 1v1l-1 1q0 1 -0.5 2t-1.5 2q0 1 -1 2
l-1 1l-2 2l-115 122q-9 10 -23 11.5t-25 -6.5q-3 -2 -5 -4q-12 -11 -12.5 -26.5t10.5 -27.5l32 -34h-13h-27q-19 0 -39 -2.5t-46 -6.5t-53 -12.5t-55 -20t-56.5 -29.5t-52.5 -41q-136 -124 -134 -361q0 -15 10.5 -25.5t25.5 -10.5t25.5 10.5t10.5 25.5q-1 205 110 308
q34 31 76.5 52t83 29t67 10.5t48.5 1.5v-1l-39 -17q-4 -1 -7 -3q-7 -5 -11.5 -12.5t-5 -16t2.5 -17.5q6 -15 20.5 -21t29.5 0l154 64l1 1h1q3 2 4 2l3 3q1 0 1 1l2 1l2 1l1 2q0 1 0.5 1.5t1 1.5t1.5 2t1 1.5t1 1.5v1q1 1 1 4q1 0 1 1v1v1q1 1 1 5v1v1v5z" />
    <glyph glyph-name="uniE632" unicode="&#xe632;" 
d="M935 400q5 3 9 6.5t6.5 6.5t4.5 6.5t3 6.5t1.5 7t0.5 7v9v150q0 30 -22 52t-53 22h-746q-20 0 -37.5 -10t-27.5 -27t-10 -37v-150q0 -19 4.5 -30t20.5 -19q14 -7 26.5 -15.5t23.5 -21t18 -29t7 -34.5q0 -75 -73 -99q-15 -10 -21 -23.5t-6 -26.5v-150q0 -30 22 -52t53 -22
h746q31 0 53 22t22 52v150q0 19 -5 28.5t-20 20.5q-41 22 -58 43.5t-17 56t16.5 56t58.5 44.5zM910 160v-134q0 -20 -14.5 -34.5t-35.5 -14.5h-696q-21 0 -35.5 14.5t-14.5 34.5v134q17 6 32.5 16t27.5 23.5t21 29t13.5 34t4.5 37.5q0 32 -12.5 60.5t-35 49t-51.5 30.5v134
q0 20 14.5 34.5t35.5 14.5h696q14 0 25.5 -6.5t18 -18t6.5 -24.5v-134q-44 -16 -71.5 -54t-27.5 -86q0 -24 7 -46.5t20.5 -40.5t31.5 -31.5t40 -21.5zM649 350h-94l102 109q8 9 0 18l-16 17q-8 9 -16 0l-113 -121l-113 121q-4 4 -8.5 4t-7.5 -4l-16 -17q-2 -2 -2.5 -4
t-0.5 -4.5t0.5 -5t2.5 -3.5l102 -110h-94q-3 0 -6 -2t-4.5 -4.5t-1.5 -6.5v-25q0 -2 1 -4.5t2.5 -4t4 -2.5t4.5 -1h112v-50h-112q-5 0 -8.5 -3.5t-3.5 -8.5v-25q0 -5 3.5 -9t8.5 -4h112v-87q0 -5 3.5 -8.5t9.5 -3.5h24q6 0 9.5 3.5t3.5 8.5v87h112q5 0 8.5 4t3.5 9v25
q0 5 -3.5 8.5t-8.5 3.5h-112v50h112q5 0 8.5 3.5t3.5 8.5v25q-1 11 -12 13z" />
    <glyph glyph-name="uniE633" unicode="&#xe633;" 
d="M525 269q-87 0 -164.5 15t-132 41t-86.5 62.5t-32 77.5q0 55 54 100t149 70.5t211.5 25.5t212 -25.5t149.5 -70.5t54 -100q0 -41 -32 -77.5t-87 -62.5t-132 -41t-164 -15zM525 602q-74 0 -142 -12.5t-114.5 -32t-74 -44t-27.5 -48.5t27.5 -48.5t74 -44t114.5 -31.5
t142 -12t141.5 12t114 31.5t74 44t27.5 48.5t-27.5 48.5t-74 44t-114 32t-141.5 12.5zM525 95q-117 0 -212 25.5t-149 70.5t-54 100q0 22 11 47t38 49q4 3 8 5t8.5 2t9 -1t8.5 -3.5t7 -5.5q5 -7 6 -14.5t-1.5 -15t-8.5 -12.5q-7 -7 -13 -14t-11 -17t-5 -20q0 -24 27.5 -48.5
t74 -44t114.5 -31.5t142 -12q59 0 115 8t99 21.5t76 31t50 37t17 38.5q0 25 -27 49q-9 9 -10 21t6.5 21.5t19.5 10.5t21 -7q23 -21 35.5 -45t12.5 -50q0 -23 -10.5 -45.5t-30.5 -42t-48 -36.5t-63.5 -30t-77 -22.5t-88.5 -14.5t-97 -5zM525 -78q-117 0 -212 26t-149 70.5
t-54 100.5q0 52 49 95q9 8 21 7t20 -10q5 -6 6 -14t-1.5 -15.5t-8.5 -12.5q-29 -26 -29 -50t27.5 -48.5t74 -44t114.5 -32t142 -12.5t141.5 12.5t114 32t74 44t27.5 48.5t-27 49q-9 8 -10 20t6.5 21.5t19.5 10.5t21 -7q12 -11 20.5 -22t14.5 -23t9.5 -24.5t3.5 -24.5
q0 -82 -113 -137q-120 -59 -302 -60z" />
    <glyph glyph-name="uniE634" unicode="&#xe634;" 
d="M849 360q-11 0 -18.5 -8t-7.5 -20v-357q0 -17 -8 -32t-22.5 -24t-32.5 -9h-560q-28 0 -52.5 20t-24.5 45v563q0 26 25 49.5t52 23.5h302q7 0 13 3.5t10 9.5t4 13q0 12 -8 19t-19 7h-302q-27 0 -50.5 -9.5t-41 -26t-27.5 -40t-10 -49.5v-563q0 -52 37 -84.5t92 -32.5h560
q53 0 84 32t31 85v357q0 8 -3 14t-9 10t-14 4zM930 627l-92 92q-22 22 -56 22t-57 -22l-74 -88l-398 -382l-27 -229l13 -11l222 31l381 399l88 72q23 23 23 58t-23 58zM290 73l6 107l99 -99zM442 109l-120 121l356 355l118 -119zM892 552l-53 -54l-129 130l53 53q4 4 8.5 6
t10 2t10.5 -2t9 -6l91 -92q8 -7 8 -18.5t-8 -18.5z" />
    <glyph glyph-name="uniE635" unicode="&#xe635;" horiz-adv-x="1283" 
d="M1226 -132v120h56v480h-58v110q0 36 -25 64t-60 28h-84v142h-906q-19 0 -31 -1t-30.5 -4.5t-33 -12.5t-25.5 -24q-15 -21 -21 -48.5t-5 -89.5v-1q4 -47 -3 -47q0 -2 1 -3l2 -3l1 -710q0 -35 25 -57.5t61 -22.5h1051q36 0 60.5 22.5t24.5 57.5zM1225 44h-418
q-77 0 -131.5 54t-54.5 131.5t54.5 131.5t131.5 54h419zM75 731q19 23 57 24h866v-85h-895q-22 0 -45 -15q-3 51 17 76zM59 -123v692q0 8 3 16t8 14t12 10t15 4h1033q16 0 27 -14t11 -30v-101h-364q-97 0 -166 -70t-69 -168q0 -65 31.5 -120.5t86 -88.5t117.5 -33h364v-111
q0 -10 -5 -17.5t-13.5 -11t-19.5 -3.5h-1033q-5 0 -9 0.5t-8 2t-7 3.5t-6 4.5t-4.5 6t-2.5 7.5t-1 8zM748 231q0 -41 23 -68.5t61 -27.5q40 0 72.5 28.5t32.5 67.5t-28 67t-67 28q-25 0 -47 -13t-34.5 -35t-12.5 -47zM842 278q13 0 24 -6t17 -17t6 -24q0 -10 -3.5 -19
t-10 -15.5t-15 -10t-18.5 -3.5q-19 0 -33 14t-14 33.5t14 33.5t33 14z" />
    <glyph glyph-name="uniE636" unicode="&#xe636;" 
d="M711 521q12 0 22.5 6t17 16t6.5 22v200q0 19 -13.5 31.5t-32 12.5t-31.5 -12.5t-13 -31.5v-200q0 -18 13 -31t31 -13zM623 699h-222v-67h222v67zM884 699h-83v-67h86q19 0 33 -13.5t14 -32.5v-154h-844v154q0 19 14 32.5t33 13.5h87v67h-83q-32 0 -58.5 -16t-42.5 -43
t-16 -58v-677q0 -48 33.5 -82.5t81.5 -34.5h745q48 0 82.5 34.5t34.5 82.5v677q0 24 -9.5 45.5t-25 37t-37 25t-45.5 9.5zM934 -98q0 -19 -14 -33t-33 -14h-750q-19 0 -33 14t-14 33v464h844v-464zM267 166q18 0 33.5 9t24.5 24.5t9 33.5q0 13 -5.5 25.5t-14.5 21.5
t-21 14.5t-26 5.5q-28 0 -47.5 -20t-19.5 -47q0 -11 3.5 -21.5t9.5 -18.5t14.5 -14t18.5 -9.5t21 -3.5zM511.5 166q27.5 0 47 19.5t19.5 47.5q0 13 -5 25.5t-14 21.5t-21.5 14.5t-25.5 5.5q-28 0 -47.5 -20t-19.5 -47.5t19.5 -47t47 -19.5zM266 -79q28 0 47.5 19.5
t19.5 47.5t-19.5 47.5t-47.5 19.5t-47.5 -19.5t-19.5 -47.5q0 -41 36 -59q15 -7 31 -8zM511.5 -79q27.5 0 47 19.5t19.5 47.5q0 14 -5 26.5t-14 21t-21.5 14t-25.5 5.5q-28 0 -47.5 -19.5t-19.5 -47.5t19.5 -47.5t47 -19.5zM755.5 166q27.5 0 47 19.5t19.5 47t-19.5 47.5
t-47 20t-47 -20t-19.5 -47.5t19.5 -47t47 -19.5zM312 521q12 0 22.5 6t16.5 16t6 22v200q0 19 -13.5 31.5t-31.5 12.5q-9 0 -17.5 -3t-14 -9t-9 -14.5t-3.5 -17.5v-200q0 -18 12.5 -31t31.5 -13z" />
    <glyph glyph-name="uniE637" unicode="&#xe637;" 
d="M823 547q-4 10 -13.5 14t-19.5 0t-14 -13.5t0 -19.5q4 -12 8 -23.5t7 -23t5 -22.5t3 -22.5t1 -22.5q0 -71 -84 -213q-14 -25 -30.5 -51t-35.5 -53q-48 -70 -105 -143q-15 -19 -28 -35q-13 16 -28 35q-13 17 -26.5 34.5t-26.5 35.5t-26 36.5t-25 36.5q-19 27 -35.5 53
t-31.5 51q-83 142 -83 213q0 77 38 142t103 103t141 38q80 0 151 -45q9 -6 19.5 -3.5t16 11.5t3 19.5t-11.5 15.5q-83 53 -178 53q-67 0 -129 -26.5t-106.5 -71.5t-71 -106.5t-26.5 -129.5q0 -85 90 -239q30 -51 68 -107q48 -71 107 -146q21 -26 35 -44q3 -4 6 -7.5t4 -4.5
l4 -4q5 -6 12 -8.5t14.5 0t12.5 8.5q1 0 3 3t5 6.5t5 6.5q4 5 8.5 10t9 10.5t9 11.5t9.5 12q58 75 106 146q39 57 69 107q44 76 67 135.5t23 103.5q0 64 -28 133zM363 404q0 -61 43 -103.5t103.5 -42.5t103.5 42.5t43 103.5t-43 103.5t-103 42.5q-40 0 -74 -19.5t-53.5 -53
t-19.5 -73.5zM605 404q0 -19 -7.5 -36.5t-20.5 -30.5t-30.5 -20.5t-36.5 -7.5q-40 0 -67.5 28t-27.5 67q0 26 12.5 48t34.5 34.5t48 12.5q39 0 67 -28t28 -67zM605 404z" />
    <glyph glyph-name="uniE638" unicode="&#xe638;" horiz-adv-x="1000" 
d="M734 753h-437q-23 0 -39 -16t-16 -39v-764q0 -11 4.5 -21t12 -17.5t17.5 -11.5t21 -4h437q22 0 38 16t16 38v764q0 9 -2.5 17.5t-8 15t-12 11.5t-15 8t-16.5 3zM624 -66h-218v55h218v-55zM734 43h-437v655h437v-655z" />
    <glyph glyph-name="uniE639" unicode="&#xe639;" 
d="M1010 -148l-272 273q97 116 97 268q0 114 -56 210.5t-152 152.5t-209.5 56t-209.5 -56t-152 -152.5t-56 -210.5t56 -210.5t152 -152.5t209 -56q152 0 268 97l271 -273q12 -11 27 -11h4q2 0 3.5 0.5t3.5 1t3.5 1.5t3.5 1.5t3.5 1.5t3.5 3l2 2q7 8 10 17.5t0 19.5t-10 17z
M417 50q-55 0 -107 17.5t-94 49t-73.5 74t-49 94.5t-17.5 108q0 93 46 172t124.5 125t171 46t171 -46t124.5 -125t46 -172q0 -138 -96 -238q-96 -99 -233 -104q-7 -1 -13 -1z" />
    <glyph glyph-name="uniE63A" unicode="&#xe63a;" 
d="M886 604h-748q-31 0 -53 -22t-22 -53v-458q0 -31 22 -53t53 -22h748q15 0 29 6t24 16t16 24t6 29v458q0 31 -22 53t-53 22zM868 550l-298 -264q-10 -8 -18.5 -15t-15.5 -11t-13 -6.5t-11 -2.5q-9 0 -23.5 9t-34.5 26l-298 264h712zM119 88v414l233 -205zM158 50l234 207
l38 -34q34 -29 82 -29q24 0 44.5 7.5t37.5 21.5l38 34l234 -207h-708zM905 88l-233 209l233 205v-414zM905 88z" />
    <glyph glyph-name="uniE63B" unicode="&#xe63b;" 
d="M889 104h-99v99q0 17 -11.5 28.5t-28.5 11.5q-11 0 -20 -5.5t-14 -14.5t-5 -20v-99h-100q-16 0 -27.5 -11.5t-11.5 -28t11.5 -28t27.5 -11.5h100v-99q0 -11 5 -20.5t14 -14.5t20 -5t20 5t14.5 14.5t5.5 20.5v99h99q16 0 28 11.5t12 28t-12 28t-28 11.5zM507 2h-292
q-8 0 -15.5 3t-12.5 8.5t-8.5 13t-3.5 15.5v555q0 16 12 28t28 12h555q17 0 28.5 -12t11.5 -28v-282v0v-1q0 -8 3 -15.5t8.5 -12.5t13 -8t15.5 -3q16 0 27.5 11.5t11.5 27.5v1v0v322q0 32 -23 55.5t-56 23.5h-635q-13 0 -25 -4t-21.5 -11.5t-17 -17t-11.5 -21.5t-4 -25v-635
q0 -13 4 -25t11.5 -22t17 -17t21.5 -11t25 -4h332q17 0 28.5 11.5t11.5 28t-11.5 28t-28.5 11.5zM507 119q14 25 38.5 40t54.5 15h42v42q0 22 8 41t22.5 33.5t32.5 22.5v2l-54 163l-188 -243l-50 85l-200 -201h294zM413 458q0 25 -17 42.5t-42 17.5t-42.5 -17.5t-17.5 -42.5
t17.5 -42t42.5 -17t42 17t17 42z" />
    <glyph glyph-name="uniE63C" unicode="&#xe63c;" 
d="M784 525l-126 126l63 63q3 3 7 6t8.5 4.5t8.5 3t9 2t9.5 0t9 -2t8.5 -3t8 -4.5t7 -6l51 -51q15 -15 15 -37.5t-15 -37.5zM418 159l-126 126l342 340l126 -126zM191 56l77 205l124 -125zM756 13q14 0 23 -9.5t9 -22.5q0 -9 -4 -16t-11.5 -11.5t-16.5 -4.5h-564
q-3 0 -6.5 1t-7 2.5t-6 3.5t-5 5t-4 6t-2 6.5t-0.5 7.5q0 7 2.5 12.5t6.5 10t10 7t12 2.5h564z" />
    <glyph glyph-name="uniE63D" unicode="&#xe63d;" 
d="M694 521l-310 -310l-118 118q-9 9 -22.5 9t-22.5 -9.5t-9 -22.5t9 -22l140 -141q5 -4 11 -6.5t12 -2.5q13 0 23 9l332 332q9 10 9 23t-9 22.5t-22.5 9.5t-22.5 -9zM480 812q-98 0 -186.5 -38t-153 -102.5t-102.5 -153t-38 -186.5t38 -186.5t102.5 -153t153 -102.5
t186.5 -38t186.5 38t153 102.5t102.5 153t38 186.5t-38 186.5t-102.5 153t-153 102.5t-186.5 38zM480 -84q-172 0 -294 122t-122 294t122 294t294 122t294 -122t122 -294t-122 -294t-294 -122z" />
    <glyph glyph-name="uniE63E" unicode="&#xe63e;" horiz-adv-x="1025" 
d="M512 764q94 0 180 -37t148 -99t99 -148t37 -180t-37 -180t-99 -148t-148 -99t-180 -37t-180 37t-148 99t-99 148t-37 180t37 180t99 148t148 99t180 37zM512 812q-139 0 -257 -68.5t-186.5 -186.5t-68.5 -257t68.5 -257t186.5 -186.5t257 -68.5t257 68.5t186.5 186.5
t68.5 257t-68.5 257t-186.5 186.5t-257 68.5zM738 119l-181 181l181 181q10 9 10 22.5t-9.5 23t-23 9.5t-22.5 -10l-181 -181l-181 181q-9 10 -22.5 10t-23 -9.5t-9.5 -23t10 -22.5l181 -181l-181 -181q-10 -9 -10 -22.5t9.5 -23t23 -9.5t22.5 10l181 181l181 -181
q9 -10 22.5 -10t22.5 10q6 6 8.5 14t0 16.5t-8.5 14.5z" />
    <glyph glyph-name="uniE63F" unicode="&#xe63f;" 
d="M87 -58q-4 0 -7.5 2t-5.5 6q-5 8 0 16l423 674q2 4 5.5 6t7.5 2q8 0 13 -8l423 -674q5 -8 0.5 -16t-13.5 -8h-846z" />
    <glyph glyph-name="uniE640" unicode="&#xe640;" 
d="M517 769q-92 0 -175.5 -34.5t-148.5 -99.5q-125 -125 -134 -301v-23q0 -92 34.5 -176t99.5 -149t148.5 -99.5t175.5 -34.5t176 34.5t149 99.5t99.5 149t34.5 176t-34.5 175.5t-99.5 148.5q-44 43 -96 73t-110 45.5t-119 15.5zM801 27q-57 -57 -130 -87.5t-153.5 -30.5
t-154 30.5t-130 87.5t-87 130t-30.5 153.5t30.5 154t87 130t130 87t154 30.5t153.5 -30.5t130 -87t87.5 -130t30.5 -153.5q0 -54 -13.5 -104.5t-40 -96t-64.5 -83.5zM525 266v296q0 6 -2.5 11t-6.5 9t-9 6.5t-11 2.5q-12 0 -20.5 -8.5t-8.5 -20.5v-315q0 -19 18 -27z
M747 247q0 -14 -9.5 -23t-22.5 -9h-214q-8 0 -15.5 4t-12 11.5t-4.5 16.5q0 13 9.5 22.5t22.5 9.5h214q23 0 30 -23q2 -5 2 -9z" />
    <glyph glyph-name="uniE641" unicode="&#xe641;" 
d="M1019 285q0 1 1 2l1 2q1 1 1 2v0q1 1 1 2v1q0 1 1 1v1v2v2v2v0v2v1q-1 0 -1 1v1l-1 1v1l-1 2q0 1 -1 2l-1 2l-2 2v0l-165 165q-5 5 -11 6.5t-12 0t-11 -6.5q-7 -7 -7 -17t7 -17l124 -124h-366q-10 0 -17 -7t-7 -17t7 -17t17 -7h366l-124 -124q-7 -7 -7 -17t7 -17t17 -7
t17 7l165 165zM364 606l124 124v-366q0 -5 2 -9.5t5 -7.5t7.5 -5t9.5 -2q7 0 12.5 3t8.5 8.5t3 12.5v366l124 -124q7 -7 17 -7t17 7t7 17t-7 17l-165 165l-2 2q-1 0 -2 1l-2 1q-1 1 -2 1q-1 1 -2 1t-2 1h-1h-2h-2h-2v0h-2h-1q0 -1 -1 -1h-1l-1 -1h-1v0l-2 -1q-1 0 -1 -1h-1
q-1 -1 -2 -1l-2 -2l-165 -165q-7 -7 -7 -17t7 -17t17 -7t17 7zM660 -6l-124 -124v365q0 10 -7 17t-17 7t-17 -7t-7 -17v-365l-124 124q-7 7 -17 7t-17 -7t-7 -17t7 -17l165 -165l1 -1q1 -1 1.5 -1t0.5 -1q1 0 2 -1q1 0 2 -1q1 0 2 -1v0h2q1 0 2 -1h1h1h1h2h2h1q1 0 2 1v0h2
l1 1h1l1 1h1l1 1h1v1q1 0 1 0.5t1 0.5l1 1v0l165 165q7 7 7 17t-7 17t-17 7t-17 -7zM82 276h365q10 0 17 7t7 17t-7 17t-17 7h-365l124 124q4 5 6 11t0 12t-6 11q-7 7 -17 7t-17 -7l-165 -165v0l-2 -2l-1 -1v-1q-1 -1 -1 -2l-1 -2v0q-1 -1 -1 -2v-1q0 -1 -1 -1v-1v-2v-2v-2
v-3q1 -1 1 -2l1 -1v-1v-1q0 -1 1 -1q0 -1 1 -2t1 -2h1q0 -1 0.5 -1t0.5 -1l165 -165q7 -7 17 -7t17 7q5 5 6.5 11t0 12t-6.5 11z" />
    <glyph glyph-name="uniE642" unicode="&#xe642;" 
d="M841 300q0 -89 -44 -165t-120 -120t-165 -44t-165 44t-120 120t-44 165q0 131 90.5 226t220.5 102v-99q0 -2 0.5 -3.5t1.5 -3t2 -1.5q3 -2 5 -2l5 2l237 137q2 1 3.5 3t1.5 4.5t-1.5 4.5t-3.5 4l-237 137q-5 2 -10 0q-1 -1 -2 -2.5t-1.5 -3t-0.5 -2.5v-102
q-40 -1 -78 -10.5t-72 -25.5t-65 -38t-57 -49t-47 -59t-35.5 -66.5t-22 -73.5t-7.5 -79q0 -109 54 -201.5t146.5 -146.5t201.5 -54t201.5 54t146.5 146.5t54 201.5h-73z" />
    <glyph glyph-name="uniE643" unicode="&#xe643;" 
d="M33 370q0 -39 26 -69t67 -40v-367h-62q-23 0 -29 -20q-2 -5 -2 -8q0 -12 9 -20t22 -8h929q13 0 22 8t9 20q0 7 -4 13.5t-11.5 10.5t-15.5 4h-62v367q27 7 48 22.5t33 38t12 48.5v28h-991v-28zM652.5 258q51.5 0 87.5 32.5t36 79.5q0 -26 12 -48.5t33.5 -38t47.5 -22.5
v-367h-464v364q51 0 87.5 32.5t36.5 79.5q0 -47 36 -79.5t87.5 -32.5zM374 261v-367h-186v367q13 4 25 9.5t22.5 13t19 17t14 20.5t9 23.5t3.5 25.5q0 -26 12 -48.5t33 -38t48 -22.5zM900 650h-743l-124 -224h991zM295 587l-62 -112l-3 -3q-1 -1 -3 -2t-4 -1.5t-4 -0.5
q-4 0 -7 1q-6 3 -8 8.5t1 10.5l62 112q7 12 21 6t7 -19zM419 587l-62 -112q-5 -7 -14 -7q-4 0 -7 1q-6 3 -8 8.5t1 10.5l62 112q7 12 20.5 6t7.5 -19zM544 482q0 -6 -4.5 -10t-11 -4t-11 4t-4.5 10v112q0 3 2 6.5t5.5 5.5t8.5 2q2 0 4.5 -1t4.5 -2t3 -3l2 -4q1 -2 1 -4v-112
zM722 469q-4 -1 -8 -1t-7.5 1.5t-5.5 5.5l-68 112q-3 5 -1 10.5t7.5 8.5t11.5 1t9 -7l68 -112q3 -5 1 -10.5t-7 -8.5zM845 469q-2 -1 -3 -1h-4q-9 1 -14 7l-62 112q-2 5 0 10.5t7 8.5q3 1 6 1.5t6 -0.5t5.5 -3t3.5 -4l62 -112q3 -5 1 -10.5t-8 -8.5zM296 57v65q-15 8 -15 24
q0 11 9 19.5t22 8.5t22 -8.5t9 -19.5q0 -16 -16 -24v-65q16 -8 16 -23q0 -12 -9 -20t-22 -8q-7 0 -12.5 2t-9.5 5.5t-6.5 9t-2.5 11.5q0 15 15 23zM157 705.5q0 7.5 4 14t11 10.5t16 4h681q13 0 22 -8.5t9 -19.5q0 -8 -4 -14.5t-11 -10t-16 -3.5h-681q-9 0 -16 3.5t-11 10
t-4 14zM576 108l-22 19l88 80l21 -20zM576 28l-22 20l175 159l22 -20zM729 127l22 -19l-88 -80l-21 20z" />
    <glyph glyph-name="uniE644" unicode="&#xe644;" 
d="M402 355h-343q-23 0 -39 16t-16 39v343q0 23 16 39t39 16h343q9 0 17.5 -2.5t15 -8t11.5 -12t8 -15t3 -17.5v-343q0 -11 -4.5 -21.5t-11.5 -17.5t-17.5 -11.5t-21.5 -4.5zM59 753v-343h343v343h-343zM965 355h-343q-9 0 -17.5 2.5t-15 8t-11.5 12t-8 15t-3 17.5v343
q0 23 16 39t39 16h343q23 0 39 -16t16 -39v-343q0 -23 -16 -39t-39 -16zM622 753v-343h343v343h-343zM402 -208h-343q-23 0 -39 16t-16 39v343q0 23 16 39t39 16h343q23 0 39 -16t16 -39v-343q0 -15 -7.5 -27.5t-20 -20t-27.5 -7.5zM59 190v-343h343v343h-343zM965 -208
h-343q-11 0 -21.5 4.5t-17.5 11.5t-11.5 17.5t-4.5 21.5v343q0 15 7.5 27.5t20 20t27.5 7.5h343q23 0 39 -16t16 -39v-343q0 -23 -16 -39t-39 -16zM622 190v-343h343v343h-343zM622 190z" />
    <glyph glyph-name="uniE645" unicode="&#xe645;" 
d="M941 30q-47 43 -127 77q-90 39 -180 57l-21 4l-100 -151l-101 150l-20 -3q-91 -16 -180 -54q-81 -33 -128 -77q-65 -59 -65 -131q0 -48 14 -89l7 -22h944l7 21q15 41 15 90q0 70 -65 128zM937 -145h-849q-2 11 -3.5 22.5t-1.5 24.5q0 44 44 84q19 18 46.5 34t62.5 31
q66 28 147 46l130 -195l129 194q32 -7 70.5 -19t76.5 -29q153 -66 153 -146q0 -25 -5 -47zM236 407v1h47q10 -98 75.5 -164t154.5 -66q81 0 145 57h-145q-72 0 -122.5 59.5t-50.5 143t50.5 142.5t122.5 59q42 0 79.5 -22.5t61.5 -62t30 -88.5h58q-10 98 -75.5 164.5
t-153.5 66.5q-59 0 -109.5 -30.5t-82.5 -84t-38 -117.5h-59q-9 77 30.5 144t109 105.5t149.5 38.5q104 0 184 -67t98 -163q4 -21 5 -43q-3 -44 -31.5 -74t-71.5 -43t-98 -13q-45 0 -86 15v-63q41 -10 86 -10q90 0 157 31.5t88 83.5h2q6 21 9.5 43t3.5 44q0 86 -46.5 159
t-126 115.5t-173.5 42.5q-71 0 -135 -25t-110.5 -67.5t-73.5 -101.5t-27 -123q0 -54 6 -87h63z" />
    <glyph glyph-name="uniE646" unicode="&#xe646;" horiz-adv-x="1204" 
d="M1202 170q0 28 -15 54.5t-42 47.5t-62.5 36.5t-80 24t-91.5 8.5h-17q-9 0 -17 -1v281q1 4 1 21q0 47 -37 86t-101.5 61t-143.5 22q-40 0 -77 -6t-68.5 -16.5t-57.5 -26t-44.5 -34t-28.5 -40.5t-10 -46q0 -9 3 -21v-77q-15 1 -28 1q-120 0 -201.5 -49t-81.5 -120
q0 -2 -0.5 -5.5t-0.5 -6.5v-5q0 -3 1 -5v-393h2q4 -67 84.5 -113t196.5 -46q117 0 201 46t88 113h2v16q3 0 9 -0.5t11 -0.5q8 0 15.5 0.5t15.5 0.5v-4h2v-11q0 -70 83.5 -121.5t202.5 -51.5q79 0 144.5 22t103.5 60.5t38 84.5v11h1v181q1 4 1 7t-0.5 7.5t-0.5 7.5zM915 287
q101 0 170 -36.5t69 -80.5q0 -28 -29.5 -55t-86 -44.5t-124 -17.5t-123.5 17.5t-85.5 44.5t-29.5 55q0 16 11 33t32.5 32t50 26.5t66.5 18.5t79 7zM1157 74v-30q-11 -44 -81.5 -76t-160.5 -32t-161 32t-81 76v30q76 -68 216 -75q13 -1 26 -1q75 0 138.5 20.5t103.5 55.5z
M596 312q-3 0 -5.5 0.5t-4.5 0.5h-4h-6v41q1 6 2 13h18q30 0 58.5 3t53.5 10t47.5 16t41 21t33.5 25v-22q-6 -29 -39 -53.5t-85 -39.5t-110 -15zM834 335q-11 -2 -12 -2q1 1 3 2.5t3 2.5t3 2.5t3 2.5v-8zM596 758q99 0 165.5 -36t66.5 -80q0 -27 -28.5 -53.5t-83 -44
t-120.5 -17.5q-100 0 -168 36t-68 79q0 28 29.5 54.5t84.5 44t122 17.5zM358 548l2 -2q1 -1 3 -2.5t2.5 -2t3.5 -2.5l3 -2q-2 0 -4.5 0.5t-5.5 1t-4 0.5v9zM285 491q100 0 170 -36t70 -79t-70 -79.5t-170 -36.5q-66 0 -121.5 18t-85 44t-29.5 54q0 43 68 79t168 36zM47 281
q39 -34 101.5 -54t136.5 -20q75 0 139.5 20t102.5 54v-29q-3 -14 -14 -28t-28 -25.5t-39.5 -21.5t-47.5 -17t-54.5 -11t-58.5 -4q-89 0 -158.5 31.5t-79.5 75.5v29zM47 176q38 -35 100.5 -55.5t137.5 -20.5t140 20.5t102 55.5v-23q-10 -44 -81.5 -75.5t-160.5 -31.5
t-158.5 31.5t-79.5 75.5v23zM47 76q72 -66 207 -75h31q75 0 140 20.5t102 54.5v-22q-10 -44 -81.5 -76t-160.5 -32t-158.5 32t-79.5 76v22zM285 -153q-92 0 -163 34t-76 80h1v16q38 -35 100.5 -55.5t137.5 -20.5t140 20.5t102 55.5v-16h1q-5 -46 -77.5 -80t-165.5 -34z
M572 413q-7 17 -23 34t-40 34q44 -7 87 -7q25 0 48.5 2t45.5 6.5t42 11t37.5 15t33 18.5t27.5 21v-29q-10 -44 -77.5 -75.5t-156.5 -31.5q-7 0 -24 1zM627 23q-8 -1 -16 -1.5t-15 -0.5t-14 1h-6v48q15 -1 20 -1q14 0 31 1v-47zM627 115q-8 0 -16 -0.5t-15 -0.5h-6h-4
q-1 0 -4 0.5t-6 0.5v54q15 -1 20 -1h8q3 0 6.5 0.5t7.5 0.5h7q0 -9 2 -18v-36zM634 215q-20 -2 -38 -2h-6q-2 0 -3.5 0.5t-4.5 0.5h-6v54q16 -1 20 -1q43 0 87 8q-35 -27 -49 -60zM915 -165q-97 0 -169.5 36t-73.5 84v12h1q15 -14 34.5 -26t42.5 -21.5t49 -16t55.5 -10
t60.5 -3.5q76 0 140 20.5t102 56.5h1v-11q0 -32 -33.5 -60t-90 -44.5t-119.5 -16.5zM262 341q-1 1 -1.5 3t-1.5 5t-1 6h-34q-1 -24 21 -34q12 -6 37 -8v-17h12v18q19 1 34 7q23 10 23 32q0 17 -17 26q-10 5 -40 13v33q12 -1 17 -7q3 -4 4 -11h33q-1 21 -22 30q-6 3 -14 5
t-18 2v12h-12v-12h-5q-2 0 -4.5 -0.5t-4 -0.5t-3 -0.5t-3.5 -0.5q-11 -2 -20 -9q-7 -4 -10 -11q-1 -2 -2 -3.5t-1.5 -3.5t-0.5 -4v-4q0 -12 9.5 -21t34.5 -14l10 -2v-37q-15 2 -20 8zM294 367q10 -2 15 -5q7 -4 7 -12q0 -5 -2 -8.5t-6 -5.5q-1 0 -3 -1t-5 -1.5t-6 -0.5v34z
M268 398q-8 5 -8 12t5 11q3 2 7 3t10 1v-31q-9 2 -14 4zM888 144q-1 2 -2.5 5.5t-1.5 9.5h-34q-1 -25 21 -35q4 -2 9.5 -3.5t12 -2.5t15.5 -1v-18h12v18q19 1 34 7q23 10 23 32q0 4 -1 8t-3 7t-5.5 6t-7.5 5q-3 1 -6.5 2.5t-8.5 3.5t-11.5 3.5t-13.5 3.5v33q4 0 7.5 -1
t5.5 -2.5t4 -3.5q3 -3 4 -11h33q-1 21 -22 30q-6 3 -14 5t-18 2v12h-12v-11q-7 -1 -11.5 -1.5t-8.5 -1.5q-11 -2 -20 -8q-2 -2 -4 -3.5t-3.5 -3.5t-2.5 -5q-4 -6 -4 -15q0 -12 9.5 -20.5t34.5 -13.5l10 -2v-38q-5 1 -9 2t-6.5 2.5t-4.5 3.5zM920 171l15 -6q3 -2 5 -5t2 -6
q0 -10 -8 -14q-4 -3 -14 -4v35zM894 202q-8 4 -8 11q0 4 1.5 6.5t3.5 4.5q2 1 4.5 2t5.5 1.5t7 0.5v-31q-3 1 -5.5 1.5t-4.5 1.5zM571 605q-3 3 -5 14h-34q0 -24 22 -34q3 -1 6.5 -2.5t8.5 -2.5t10 -1.5t12 -0.5v-18h12v18q9 0 17.5 2t15.5 5q24 10 24 32q0 17 -17 26
q-5 3 -15 6t-25 7v33q12 -1 17 -7q1 -1 1.5 -2.5t1 -4t1.5 -4.5h33q-1 21 -22 30q-6 3 -14 5t-18 2v12h-12v-12q-7 0 -12 -0.5t-8 -1.5q-11 -2 -20 -8l-6 -6q-3 -3 -5 -6q-3 -7 -3 -15q0 -6 2 -11t7 -10q10 -9 34 -14l11 -2v-37q-8 1 -12.5 3t-7.5 5zM603 631q10 -2 15 -5
q7 -4 7 -12q-1 -9 -8 -14q-4 -2 -14 -3v34zM577 662q-8 5 -8 12t5 11q3 2 7 3t10 1v-31q-10 2 -14 4z" />
    <glyph glyph-name="uniE647" unicode="&#xe647;" 
d="M921 570q0 37 -18 62t-45 25h-691q-11 0 -20.5 -4t-17.5 -12t-13.5 -19t-9 -24.5t-3.5 -27.5q0 -18 5 -34.5t13.5 -28t20.5 -18.5t25 -7h62l-72 -475v-2q0 -26 25.5 -44.5t62.5 -18.5q36 0 61.5 18t26.5 44l27 180h305l27 -180q0 -8 2.5 -15t7 -13t10.5 -11.5t13.5 -9.5
t16 -7t18.5 -4.5t20 -1.5q24 0 44 8.5t31.5 23t11.5 31.5v2l-72 475h63q27 0 45 25.5t18 62.5zM144 570q0 19 7.5 32.5t15.5 13.5h691q8 0 15 -13.5t7 -33t-7 -33t-15 -13.5h-691q-4 0 -8 3.5t-7 9.5t-5.5 15t-2.5 19zM292 7v-2q0 -7 -14 -14.5t-33 -7.5q-13 0 -24 3.5
t-16.5 8.5t-6.5 9l73 478h93zM367 225l9 61h272l10 -61h-291zM780 -17q-13 0 -24.5 4t-17 9t-5.5 9l-72 477h93l72 -478q-1 -7 -14 -14t-32 -7zM643 326h-261l23 156h214z" />
    <glyph glyph-name="uniE648" unicode="&#xe648;" 
d="M831 -13l-1 26q-14 72 -74 145q-19 23 -47 47t-47 36l-19 12l-131 -228l-132 228q-75 -40 -131 -133q-16 -25 -30 -59t-20.5 -53.5t-6.5 -20.5q3 -5 9.5 -14t32.5 -32t59 -40.5t91.5 -32t127.5 -14.5q188 -1 291 100q20 19 28 33zM627 103h90v-38h-90v38zM568 177l-56 57
l-57 -57l57 -95zM511 238q143 9 174 179q3 14 3.5 29t-0.5 29q-5 -2 -10.5 -2.5t-11.5 0t-13 2.5t-13 5q-9 5 -19 11t-18 12.5t-16 12.5t-13.5 11.5t-10 9.5t-7.5 7l-2 2q-3 -3 -8.5 -7.5t-23 -16.5t-36 -20.5t-47 -15.5t-56.5 -6q-13 1 -24.5 2t-21.5 2q-6 -34 0 -67
q14 -81 62.5 -132t111.5 -47zM297 627q-16 -16 -37.5 -27t-34.5 -14l-14 -2q1 -1 2 -2.5t4.5 -5.5t8 -8.5t12.5 -10t17.5 -10.5t23 -10.5t28 -9t34.5 -6.5t42 -4q28 0 56 6.5t48 16t35.5 19.5t23.5 17l8 8q1 -1 1.5 -2t4 -4t7 -6.5t8.5 -7.5l10 -10q5 -4 12 -9t13.5 -9.5
t14.5 -9.5t15 -9q7 -3 14 -5t13 -2t12 0.5t10.5 1.5t8 2.5t4.5 1.5l2 1q1 3 1.5 6.5t1 15.5t0 24t-3.5 28.5t-8 32t-15 33t-23.5 32t-34.5 27.5t-46 22q-31 10 -60.5 11.5t-55.5 -7t-46.5 -17.5t-42.5 -28t-33.5 -29.5t-30.5 -29.5q-7 -7 -10 -11zM297 627z" />
    <glyph glyph-name="uniE649" unicode="&#xe649;" 
d="M908 -96l1 1v1q0 1 -1 3q-4 27 -13 47q-4 11 -10.5 21.5t-15 20t-17.5 17t-19 14.5q-30 20 -90.5 44.5t-83.5 37.5q-36 22 -45 48q-2 19 -2 88q7 5 12 12t11 17q19 36 24 73q5 1 9 3t7.5 5.5t5.5 6.5q7 10 10.5 22t4.5 27q2 25 -16 39q26 88 19 152q-5 54 -37 83
q-21 20 -58 26q-4 6 -9 11t-10 8q-27 16 -73 17q-82 -1 -128 -34q-9 -7 -17 -15t-14 -17.5t-11 -19.5q-16 -33 -18 -80q-1 -30 3.5 -62.5t13.5 -68.5q-18 -13 -17 -37v-7l2 -6q0 -4 1 -8l2 -6q1 -4 2 -7t2 -7q9 -21 28 -25q3 -18 8.5 -35.5t14.5 -33.5q3 -6 5.5 -9.5t5.5 -8
t6.5 -8.5t7.5 -7q1 -69 -2 -88q-10 -29 -56 -54q-19 -10 -73 -31.5t-81 -38.5q-17 -11 -31 -23t-25 -26q-22 -30 -28 -73q-3 -4 -3 -7l2 -5q0 -1 -0.5 -2t-0.5 -2h5q26 -18 136.5 -30t257 -12t257 12t135.5 30h7q0 1 -0.5 3.5t-0.5 3.5z" />
    <glyph glyph-name="uniE64A" unicode="&#xe64a;" 
d="M666 -79v141q151 50 131 291h-161v331h321v-422q-50 -291 -281 -331zM105 -79v141q150 50 130 291h-171v331h332v-422q-61 -291 -281 -331z" />
    <glyph glyph-name="uniE64B" unicode="&#xe64b;" 
d="M355 684v-141q-150 -50 -130 -291h161v-331h-322v422q51 290 281 331zM917 684v-141q-150 -50 -130 -291h170v-331h-331v422q61 290 281 331z" />
    <glyph glyph-name="uniE64C" unicode="&#xe64c;" 
d="M693 465q15 0 35 -2q-23 109 -127.5 181.5t-238.5 72.5q-58 0 -113.5 -15.5t-100 -43.5t-78 -66t-52 -85t-18.5 -98q0 -143 145 -245l-36 -109l127 64q6 -2 25 -5.5t27 -5t22.5 -4t26.5 -3t25 -0.5q16 0 34 1q-5 19 -8 38t-3 38q0 119 89.5 203t218.5 84zM498 563
q21 0 33.5 -12.5t12.5 -32.5q0 -14 -6 -24t-16 -16t-24 -6q-21 0 -37.5 13t-16.5 32.5t16.5 32.5t37.5 13zM245 472q-14 0 -26.5 6t-20.5 16.5t-8 23.5t8 23.5t20.5 16t26.5 5.5q20 0 32.5 -12.5t12.5 -33t-12.5 -33t-32.5 -12.5zM1024 182q0 71 -43 132t-113.5 96
t-151.5 35q-129 0 -218.5 -77t-89.5 -186t89.5 -186t218.5 -77q37 0 109 18l99 -54l-27 90q127 96 127 209zM616 228q-13 0 -24.5 11t-11.5 25q0 9 5 17.5t13.5 13.5t17.5 5q20 0 33 -11t13 -25q0 -7 -3.5 -13.5t-9.5 -11.5t-14.5 -8t-18.5 -3zM815 228q-8 0 -16.5 5
t-14 13.5t-5.5 17.5q0 13 11.5 24.5t24.5 11.5q20 0 33 -11t13 -25q0 -7 -3.5 -13.5t-9 -11.5t-14.5 -8t-19 -3z" />
    <glyph glyph-name="uniE64D" unicode="&#xe64d;" 
d="M914 300q0 109 -53.5 202t-146.5 146.5t-202 53.5q-82 0 -156.5 -31.5t-128.5 -85.5t-85.5 -128.5t-31.5 -156.5q0 -109 53.5 -202t146.5 -146.5t202 -53.5q82 0 156.5 31.5t128.5 85.5t85.5 128.5t31.5 156.5zM165 300q0 54 16 106q125 3 235 50t189 127
q93 -95 224 -141q30 -68 30 -142q0 -94 -46.5 -174t-126.5 -126.5t-174 -46.5q-47 0 -92 12.5t-83 34.5t-70.5 54.5t-54.5 70.5t-34.5 83t-12.5 92zM382 406q-19 0 -35.5 -9.5t-26 -26t-9.5 -35.5t9.5 -35t26 -25.5t35.5 -9.5q22 0 39.5 12.5t25.5 32.5l-51 25l51 26
q-8 20 -25.5 32.5t-39.5 12.5zM648 264q22 0 39.5 12.5t25.5 32.5l-51 26l51 26q-4 9 -10.5 17.5t-15 14.5t-18.5 9t-21 3q-30 0 -50.5 -20.5t-20.5 -49.5t20.5 -50t50.5 -21zM993 370q-12 122 -78.5 223.5t-173 160t-229.5 58.5q-187 0 -325 -127.5t-156 -314.5
q-14 -5 -22.5 -17t-8.5 -26v-90q0 -19 13.5 -33t33 -14t33 14t13.5 33v90q0 13 -7 23.5t-18 16.5q12 114 73.5 207t159.5 147t211 54t211 -54t159.5 -147t73.5 -207q-7 -3 -13 -9.5t-9 -14.5t-3 -16v-90q0 -10 3.5 -18.5t10 -15t15.5 -9.5q-32 -138 -136 -235t-244 -119
q-7 10 -20.5 15.5t-29.5 5.5q-15 0 -27.5 -5t-20 -13.5t-7.5 -17.5q0 -16 16.5 -26.5t38.5 -10.5q15 0 27 4.5t19.5 12.5t8.5 17q145 24 252.5 125t140.5 243q19 1 32.5 14.5t13.5 32.5v90q0 9 -4 18t-11 15.5t-16 9.5z" />
    <glyph glyph-name="uniE64E" unicode="&#xe64e;" 
d="M64 751h896v-41h-896v41zM491 725h41v-875h-41v875zM542 730l419 -540l-33 -25l-418 540zM512 701l-419 -540l-32 25l418 540z" />
    <glyph glyph-name="uniE64F" unicode="&#xe64f;" 
d="M716 172q0 4 -1.5 7t-4.5 4.5t-6 1.5h-384q-2 0 -4 -0.5t-4 -2t-3 -3t-1.5 -3.5t-0.5 -4v-25q0 -6 3.5 -9.5t9.5 -3.5h384q5 0 8.5 3.5t3.5 9.5v25zM716 300q0 5 -3.5 9t-8.5 4h-384q-2 0 -4 -0.5t-4 -2t-3 -3t-1.5 -3.5t-0.5 -4v-25q0 -6 3.5 -9.5t9.5 -3.5h384
q5 0 8.5 3.5t3.5 9.5v25zM819 621h-128v-51h103q20 0 38 -10.5t28 -28t10 -38.5v-538q0 -9 -2 -17.5t-5.5 -16t-9 -14t-12 -12t-14 -9.5t-16 -6t-17.5 -2h-564q-31 0 -53.5 22.5t-22.5 54.5v538q0 21 10 38.5t28 28t38 10.5h102v51h-127q-43 0 -73 -30t-30 -73v-588
q0 -43 30 -73t73 -30h614q28 0 51.5 14t37.5 37.5t14 51.5v588q0 43 -30 73t-73 30zM704 57h-384q-2 0 -4 -0.5t-4 -2t-3 -3t-1.5 -3.5t-0.5 -4v-25q0 -6 3.5 -9.5t9.5 -3.5h384q5 0 8.5 3.5t3.5 9.5v25q0 6 -3.5 9.5t-8.5 3.5zM845 569q0 33 -21 42.5t-86 9.5h-21v50h-101
q-2 9 -4.5 17t-6.5 15t-8 12.5t-9.5 10.5t-11.5 8.5t-13 6.5t-14.5 4.5t-16 2.5t-18.5 1q-88 0 -106 -78h-100v-51h-2q-11 0 -28.5 0.5t-23.5 0t-16.5 -1t-14 -2.5t-8.5 -5.5t-6 -9t-2.5 -13.5t-1.5 -20h103v-128h409v128h21h-68h175zM461 621v12q0 28 13.5 46.5t39.5 18.5
t38 -18t12 -47v-12h101v-128h-307v128h103zM306 570z" />
    <glyph glyph-name="uniE650" unicode="&#xe650;" 
d="M512 379l-232 -232q-5 -5 -11.5 -6.5t-12.5 0t-11 6.5t-6.5 11.5t0 13t6.5 10.5l246 247q9 8 21 7q12 1 21 -7l246 -247q3 -3 5 -6.5t2.5 -7t0 -7.5t-2.5 -7.5t-5 -6.5q-5 -5 -11 -6.5t-12.5 0t-11.5 6.5z" />
    <glyph glyph-name="uniE651" unicode="&#xe651;" 
d="M512 197l232 232q5 5 11.5 6.5t12.5 0t11 -6.5q7 -7 7 -17.5t-7 -17.5l-246 -247q-9 -8 -21 -7q-12 -1 -21 7l-246 247q-7 7 -7 17.5t7 17.5q5 5 11 6.5t12.5 0t11.5 -6.5z" />
    <glyph glyph-name="uniE652" unicode="&#xe652;" 
d="M958 301q0 91 -35.5 174t-95 143t-142.5 95t-174.5 35t-174 -35t-142.5 -95t-95.5 -143t-35.5 -174t35.5 -174t95.5 -143t142.5 -95.5t174 -35.5t174.5 35.5t142.5 95.5t95 143t35.5 174zM922 301q0 -67 -20.5 -130t-58.5 -113.5t-89 -89t-113.5 -59t-129.5 -20.5
q-112 0 -207 55t-150 150t-55 207t55 206.5t150 149.5t206.5 55t206.5 -55t150 -149.5t55 -206.5zM216 484l295 -175l286 175l-291 -503z" />
    <glyph glyph-name="uniE653" unicode="&#xe653;" 
d="M511 748q-92 0 -174.5 -35t-142.5 -95t-95.5 -143t-35.5 -174t35.5 -174t95.5 -143t142.5 -95.5t174 -35.5t174.5 35.5t142.5 95.5t95 143t35.5 174q0 170 -113 297q-109 123 -271 146q-32 4 -63 4zM510.5 -111q-111.5 0 -206.5 55t-150 150t-55 207t55 206.5t150 149.5
t206.5 55t206.5 -55t150 -149.5t55 -206.5t-55 -207t-150 -150t-206.5 -55zM216 117l295 175l286 -175l-291 503z" />
    <glyph glyph-name="uniE654" unicode="&#xe654;" 
d="M756 419l-125 125l63 62q15 16 37 16t38 -16l50 -50q15 -15 15 -37t-15 -38zM393 55l-125 125l340 338l125 -125zM167 -47l76 203l124 -124zM729 -90z" />
    <glyph glyph-name="uniE655" unicode="&#xe655;" 
d="M947 -135q-5 -5 -12 -8t-14 -3t-14 3t-12 8l-222 222q-49 -40 -109.5 -62t-125.5 -22q-102 0 -187.5 50t-135.5 135.5t-50 187t50 187t135.5 135.5t187 50t187 -50t135.5 -135.5t50 -186.5q0 -59 -19 -116q-12 -33 -40 -31q-17 1 -27.5 14t-5.5 35l5 19q11 40 11 79
q0 123 -87 210.5t-210 87.5t-210.5 -87.5t-87.5 -210.5t87.5 -210t210.5 -87q122 0 209 86l-1 -1l1 1q27 27 54 -1q7 -6 39 -38l61 -61l28 -29v1l119 -119q11 -11 11 -26.5t-11 -26.5z" />
  </font>
</defs>
</svg>
